<?xml version="1.0" encoding="utf-8" standalone="no"?>
<!DOCTYPE svg PUBLIC "-//W3C//DTD SVG 1.1//EN"
  "http://www.w3.org/Graphics/SVG/1.1/DTD/svg11.dtd">
<!-- Created with matplotlib (http://matplotlib.org/) -->
<svg height="342pt" version="1.1" viewBox="0 0 460 342" width="460pt" xmlns="http://www.w3.org/2000/svg" xmlns:xlink="http://www.w3.org/1999/xlink">
 <defs>
  <style type="text/css">
*{stroke-linecap:butt;stroke-linejoin:round;}
  </style>
 </defs>
 <g id="figure_1">
  <g id="patch_1">
   <path d="M 0 342.72 
L 460.8 342.72 
L 460.8 0 
L 0 0 
z
" style="fill:#ffffff;"/>
  </g>
  <g id="axes_1">
   <g id="patch_2">
    <path d="M 24.88 301.109667 
L 447.48 301.109667 
L 447.48 13.209 
L 24.88 13.209 
z
" style="fill:#ffffff;"/>
   </g>
   <g id="patch_3">
    <path clip-path="url(#pe8d4dda2bd)" d="M 44.089091 301.109667 
L 51.772727 301.109667 
L 51.772727 192.378709 
L 44.089091 192.378709 
z
" style="fill:#808080;opacity:0.5;"/>
   </g>
   <g id="patch_4">
    <path clip-path="url(#pe8d4dda2bd)" d="M 51.772727 301.109667 
L 59.456364 301.109667 
L 59.456364 55.283153 
L 51.772727 55.283153 
z
" style="fill:#808080;opacity:0.5;"/>
   </g>
   <g id="patch_5">
    <path clip-path="url(#pe8d4dda2bd)" d="M 59.456364 301.109667 
L 67.14 301.109667 
L 67.14 301.109667 
L 59.456364 301.109667 
z
" style="fill:#808080;opacity:0.5;"/>
   </g>
   <g id="patch_6">
    <path clip-path="url(#pe8d4dda2bd)" d="M 67.14 301.109667 
L 74.823636 301.109667 
L 74.823636 69.465452 
L 67.14 69.465452 
z
" style="fill:#808080;opacity:0.5;"/>
   </g>
   <g id="patch_7">
    <path clip-path="url(#pe8d4dda2bd)" d="M 74.823636 301.109667 
L 82.507273 301.109667 
L 82.507273 301.109667 
L 74.823636 301.109667 
z
" style="fill:#808080;opacity:0.5;"/>
   </g>
   <g id="patch_8">
    <path clip-path="url(#pe8d4dda2bd)" d="M 82.507273 301.109667 
L 90.190909 301.109667 
L 90.190909 50.55572 
L 82.507273 50.55572 
z
" style="fill:#808080;opacity:0.5;"/>
   </g>
   <g id="patch_9">
    <path clip-path="url(#pe8d4dda2bd)" d="M 90.190909 301.109667 
L 97.874545 301.109667 
L 97.874545 102.557483 
L 90.190909 102.557483 
z
" style="fill:#808080;opacity:0.5;"/>
   </g>
   <g id="patch_10">
    <path clip-path="url(#pe8d4dda2bd)" d="M 97.874545 301.109667 
L 105.558182 301.109667 
L 105.558182 301.109667 
L 97.874545 301.109667 
z
" style="fill:#808080;opacity:0.5;"/>
   </g>
   <g id="patch_11">
    <path clip-path="url(#pe8d4dda2bd)" d="M 105.558182 301.109667 
L 113.241818 301.109667 
L 113.241818 102.557483 
L 105.558182 102.557483 
z
" style="fill:#808080;opacity:0.5;"/>
   </g>
   <g id="patch_12">
    <path clip-path="url(#pe8d4dda2bd)" d="M 113.241818 301.109667 
L 120.925455 301.109667 
L 120.925455 301.109667 
L 113.241818 301.109667 
z
" style="fill:#808080;opacity:0.5;"/>
   </g>
   <g id="patch_13">
    <path clip-path="url(#pe8d4dda2bd)" d="M 120.925455 301.109667 
L 128.609091 301.109667 
L 128.609091 102.557483 
L 120.925455 102.557483 
z
" style="fill:#808080;opacity:0.5;"/>
   </g>
   <g id="patch_14">
    <path clip-path="url(#pe8d4dda2bd)" d="M 128.609091 301.109667 
L 136.292727 301.109667 
L 136.292727 102.557483 
L 128.609091 102.557483 
z
" style="fill:#808080;opacity:0.5;"/>
   </g>
   <g id="patch_15">
    <path clip-path="url(#pe8d4dda2bd)" d="M 136.292727 301.109667 
L 143.976364 301.109667 
L 143.976364 301.109667 
L 136.292727 301.109667 
z
" style="fill:#808080;opacity:0.5;"/>
   </g>
   <g id="patch_16">
    <path clip-path="url(#pe8d4dda2bd)" d="M 143.976364 301.109667 
L 151.66 301.109667 
L 151.66 126.194648 
L 143.976364 126.194648 
z
" style="fill:#808080;opacity:0.5;"/>
   </g>
   <g id="patch_17">
    <path clip-path="url(#pe8d4dda2bd)" d="M 151.66 301.109667 
L 159.343636 301.109667 
L 159.343636 301.109667 
L 151.66 301.109667 
z
" style="fill:#808080;opacity:0.5;"/>
   </g>
   <g id="patch_18">
    <path clip-path="url(#pe8d4dda2bd)" d="M 159.343636 301.109667 
L 167.027273 301.109667 
L 167.027273 26.918556 
L 159.343636 26.918556 
z
" style="fill:#808080;opacity:0.5;"/>
   </g>
   <g id="patch_19">
    <path clip-path="url(#pe8d4dda2bd)" d="M 167.027273 301.109667 
L 174.710909 301.109667 
L 174.710909 112.012349 
L 167.027273 112.012349 
z
" style="fill:#808080;opacity:0.5;"/>
   </g>
   <g id="patch_20">
    <path clip-path="url(#pe8d4dda2bd)" d="M 174.710909 301.109667 
L 182.394545 301.109667 
L 182.394545 301.109667 
L 174.710909 301.109667 
z
" style="fill:#808080;opacity:0.5;"/>
   </g>
   <g id="patch_21">
    <path clip-path="url(#pe8d4dda2bd)" d="M 182.394545 301.109667 
L 190.078182 301.109667 
L 190.078182 178.19641 
L 182.394545 178.19641 
z
" style="fill:#808080;opacity:0.5;"/>
   </g>
   <g id="patch_22">
    <path clip-path="url(#pe8d4dda2bd)" d="M 190.078182 301.109667 
L 197.761818 301.109667 
L 197.761818 301.109667 
L 190.078182 301.109667 
z
" style="fill:#808080;opacity:0.5;"/>
   </g>
   <g id="patch_23">
    <path clip-path="url(#pe8d4dda2bd)" d="M 197.761818 301.109667 
L 205.445455 301.109667 
L 205.445455 93.102617 
L 197.761818 93.102617 
z
" style="fill:#808080;opacity:0.5;"/>
   </g>
   <g id="patch_24">
    <path clip-path="url(#pe8d4dda2bd)" d="M 205.445455 301.109667 
L 213.129091 301.109667 
L 213.129091 74.192885 
L 205.445455 74.192885 
z
" style="fill:#808080;opacity:0.5;"/>
   </g>
   <g id="patch_25">
    <path clip-path="url(#pe8d4dda2bd)" d="M 213.129091 301.109667 
L 220.812727 301.109667 
L 220.812727 301.109667 
L 213.129091 301.109667 
z
" style="fill:#808080;opacity:0.5;"/>
   </g>
   <g id="patch_26">
    <path clip-path="url(#pe8d4dda2bd)" d="M 220.812727 301.109667 
L 228.496364 301.109667 
L 228.496364 107.284916 
L 220.812727 107.284916 
z
" style="fill:#808080;opacity:0.5;"/>
   </g>
   <g id="patch_27">
    <path clip-path="url(#pe8d4dda2bd)" d="M 228.496364 301.109667 
L 236.18 301.109667 
L 236.18 301.109667 
L 228.496364 301.109667 
z
" style="fill:#808080;opacity:0.5;"/>
   </g>
   <g id="patch_28">
    <path clip-path="url(#pe8d4dda2bd)" d="M 236.18 301.109667 
L 243.863636 301.109667 
L 243.863636 149.831812 
L 236.18 149.831812 
z
" style="fill:#808080;opacity:0.5;"/>
   </g>
   <g id="patch_29">
    <path clip-path="url(#pe8d4dda2bd)" d="M 243.863636 301.109667 
L 251.547273 301.109667 
L 251.547273 78.920318 
L 243.863636 78.920318 
z
" style="fill:#808080;opacity:0.5;"/>
   </g>
   <g id="patch_30">
    <path clip-path="url(#pe8d4dda2bd)" d="M 251.547273 301.109667 
L 259.230909 301.109667 
L 259.230909 301.109667 
L 251.547273 301.109667 
z
" style="fill:#808080;opacity:0.5;"/>
   </g>
   <g id="patch_31">
    <path clip-path="url(#pe8d4dda2bd)" d="M 259.230909 301.109667 
L 266.914545 301.109667 
L 266.914545 74.192885 
L 259.230909 74.192885 
z
" style="fill:#808080;opacity:0.5;"/>
   </g>
   <g id="patch_32">
    <path clip-path="url(#pe8d4dda2bd)" d="M 266.914545 301.109667 
L 274.598182 301.109667 
L 274.598182 301.109667 
L 266.914545 301.109667 
z
" style="fill:#808080;opacity:0.5;"/>
   </g>
   <g id="patch_33">
    <path clip-path="url(#pe8d4dda2bd)" d="M 274.598182 301.109667 
L 282.281818 301.109667 
L 282.281818 102.557483 
L 274.598182 102.557483 
z
" style="fill:#808080;opacity:0.5;"/>
   </g>
   <g id="patch_34">
    <path clip-path="url(#pe8d4dda2bd)" d="M 282.281818 301.109667 
L 289.965455 301.109667 
L 289.965455 168.741544 
L 282.281818 168.741544 
z
" style="fill:#808080;opacity:0.5;"/>
   </g>
   <g id="patch_35">
    <path clip-path="url(#pe8d4dda2bd)" d="M 289.965455 301.109667 
L 297.649091 301.109667 
L 297.649091 301.109667 
L 289.965455 301.109667 
z
" style="fill:#808080;opacity:0.5;"/>
   </g>
   <g id="patch_36">
    <path clip-path="url(#pe8d4dda2bd)" d="M 297.649091 301.109667 
L 305.332727 301.109667 
L 305.332727 126.194648 
L 297.649091 126.194648 
z
" style="fill:#808080;opacity:0.5;"/>
   </g>
   <g id="patch_37">
    <path clip-path="url(#pe8d4dda2bd)" d="M 305.332727 301.109667 
L 313.016364 301.109667 
L 313.016364 301.109667 
L 305.332727 301.109667 
z
" style="fill:#808080;opacity:0.5;"/>
   </g>
   <g id="patch_38">
    <path clip-path="url(#pe8d4dda2bd)" d="M 313.016364 301.109667 
L 320.7 301.109667 
L 320.7 192.378709 
L 313.016364 192.378709 
z
" style="fill:#808080;opacity:0.5;"/>
   </g>
   <g id="patch_39">
    <path clip-path="url(#pe8d4dda2bd)" d="M 320.7 301.109667 
L 328.383636 301.109667 
L 328.383636 197.106142 
L 320.7 197.106142 
z
" style="fill:#808080;opacity:0.5;"/>
   </g>
   <g id="patch_40">
    <path clip-path="url(#pe8d4dda2bd)" d="M 328.383636 301.109667 
L 336.067273 301.109667 
L 336.067273 301.109667 
L 328.383636 301.109667 
z
" style="fill:#808080;opacity:0.5;"/>
   </g>
   <g id="patch_41">
    <path clip-path="url(#pe8d4dda2bd)" d="M 336.067273 301.109667 
L 343.750909 301.109667 
L 343.750909 206.561008 
L 336.067273 206.561008 
z
" style="fill:#808080;opacity:0.5;"/>
   </g>
   <g id="patch_42">
    <path clip-path="url(#pe8d4dda2bd)" d="M 343.750909 301.109667 
L 351.434545 301.109667 
L 351.434545 301.109667 
L 343.750909 301.109667 
z
" style="fill:#808080;opacity:0.5;"/>
   </g>
   <g id="patch_43">
    <path clip-path="url(#pe8d4dda2bd)" d="M 351.434545 301.109667 
L 359.118182 301.109667 
L 359.118182 220.743307 
L 351.434545 220.743307 
z
" style="fill:#808080;opacity:0.5;"/>
   </g>
   <g id="patch_44">
    <path clip-path="url(#pe8d4dda2bd)" d="M 359.118182 301.109667 
L 366.801818 301.109667 
L 366.801818 220.743307 
L 359.118182 220.743307 
z
" style="fill:#808080;opacity:0.5;"/>
   </g>
   <g id="patch_45">
    <path clip-path="url(#pe8d4dda2bd)" d="M 366.801818 301.109667 
L 374.485455 301.109667 
L 374.485455 301.109667 
L 366.801818 301.109667 
z
" style="fill:#808080;opacity:0.5;"/>
   </g>
   <g id="patch_46">
    <path clip-path="url(#pe8d4dda2bd)" d="M 374.485455 301.109667 
L 382.169091 301.109667 
L 382.169091 268.017636 
L 374.485455 268.017636 
z
" style="fill:#808080;opacity:0.5;"/>
   </g>
   <g id="patch_47">
    <path clip-path="url(#pe8d4dda2bd)" d="M 382.169091 301.109667 
L 389.852727 301.109667 
L 389.852727 301.109667 
L 382.169091 301.109667 
z
" style="fill:#808080;opacity:0.5;"/>
   </g>
   <g id="patch_48">
    <path clip-path="url(#pe8d4dda2bd)" d="M 389.852727 301.109667 
L 397.536364 301.109667 
L 397.536364 244.380471 
L 389.852727 244.380471 
z
" style="fill:#808080;opacity:0.5;"/>
   </g>
   <g id="patch_49">
    <path clip-path="url(#pe8d4dda2bd)" d="M 397.536364 301.109667 
L 405.22 301.109667 
L 405.22 282.199935 
L 397.536364 282.199935 
z
" style="fill:#808080;opacity:0.5;"/>
   </g>
   <g id="patch_50">
    <path clip-path="url(#pe8d4dda2bd)" d="M 405.22 301.109667 
L 412.903636 301.109667 
L 412.903636 301.109667 
L 405.22 301.109667 
z
" style="fill:#808080;opacity:0.5;"/>
   </g>
   <g id="patch_51">
    <path clip-path="url(#pe8d4dda2bd)" d="M 412.903636 301.109667 
L 420.587273 301.109667 
L 420.587273 291.654801 
L 412.903636 291.654801 
z
" style="fill:#808080;opacity:0.5;"/>
   </g>
   <g id="patch_52">
    <path clip-path="url(#pe8d4dda2bd)" d="M 420.587273 301.109667 
L 428.270909 301.109667 
L 428.270909 286.927368 
L 420.587273 286.927368 
z
" style="fill:#808080;opacity:0.5;"/>
   </g>
   <g id="matplotlib.axis_1">
    <g id="xtick_1">
     <g id="line2d_1">
      <defs>
       <path d="M 0 0 
L 0 3.5 
" id="m6aa6897d1e" style="stroke:#000000;stroke-width:0.8;"/>
      </defs>
      <g>
       <use style="stroke:#000000;stroke-width:0.8;" x="44.089091" xlink:href="#m6aa6897d1e" y="301.109667"/>
      </g>
     </g>
     <g id="text_1">
      <!-- 0.0 -->
      <defs>
       <path d="M 31.78125 66.40625 
Q 24.171875 66.40625 20.328125 58.90625 
Q 16.5 51.421875 16.5 36.375 
Q 16.5 21.390625 20.328125 13.890625 
Q 24.171875 6.390625 31.78125 6.390625 
Q 39.453125 6.390625 43.28125 13.890625 
Q 47.125 21.390625 47.125 36.375 
Q 47.125 51.421875 43.28125 58.90625 
Q 39.453125 66.40625 31.78125 66.40625 
z
M 31.78125 74.21875 
Q 44.046875 74.21875 50.515625 64.515625 
Q 56.984375 54.828125 56.984375 36.375 
Q 56.984375 17.96875 50.515625 8.265625 
Q 44.046875 -1.421875 31.78125 -1.421875 
Q 19.53125 -1.421875 13.0625 8.265625 
Q 6.59375 17.96875 6.59375 36.375 
Q 6.59375 54.828125 13.0625 64.515625 
Q 19.53125 74.21875 31.78125 74.21875 
z
" id="DejaVuSans-30"/>
       <path d="M 10.6875 12.40625 
L 21 12.40625 
L 21 0 
L 10.6875 0 
z
" id="DejaVuSans-2e"/>
      </defs>
      <g transform="translate(36.137528 315.708104)scale(0.1 -0.1)">
       <use xlink:href="#DejaVuSans-30"/>
       <use x="63.623047" xlink:href="#DejaVuSans-2e"/>
       <use x="95.410156" xlink:href="#DejaVuSans-30"/>
      </g>
     </g>
    </g>
    <g id="xtick_2">
     <g id="line2d_2">
      <g>
       <use style="stroke:#000000;stroke-width:0.8;" x="126.047879" xlink:href="#m6aa6897d1e" y="301.109667"/>
      </g>
     </g>
     <g id="text_2">
      <!-- 0.2 -->
      <defs>
       <path d="M 19.1875 8.296875 
L 53.609375 8.296875 
L 53.609375 0 
L 7.328125 0 
L 7.328125 8.296875 
Q 12.9375 14.109375 22.625 23.890625 
Q 32.328125 33.6875 34.8125 36.53125 
Q 39.546875 41.84375 41.421875 45.53125 
Q 43.3125 49.21875 43.3125 52.78125 
Q 43.3125 58.59375 39.234375 62.25 
Q 35.15625 65.921875 28.609375 65.921875 
Q 23.96875 65.921875 18.8125 64.3125 
Q 13.671875 62.703125 7.8125 59.421875 
L 7.8125 69.390625 
Q 13.765625 71.78125 18.9375 73 
Q 24.125 74.21875 28.421875 74.21875 
Q 39.75 74.21875 46.484375 68.546875 
Q 53.21875 62.890625 53.21875 53.421875 
Q 53.21875 48.921875 51.53125 44.890625 
Q 49.859375 40.875 45.40625 35.40625 
Q 44.1875 33.984375 37.640625 27.21875 
Q 31.109375 20.453125 19.1875 8.296875 
z
" id="DejaVuSans-32"/>
      </defs>
      <g transform="translate(118.096316 315.708104)scale(0.1 -0.1)">
       <use xlink:href="#DejaVuSans-30"/>
       <use x="63.623047" xlink:href="#DejaVuSans-2e"/>
       <use x="95.410156" xlink:href="#DejaVuSans-32"/>
      </g>
     </g>
    </g>
    <g id="xtick_3">
     <g id="line2d_3">
      <g>
       <use style="stroke:#000000;stroke-width:0.8;" x="208.006667" xlink:href="#m6aa6897d1e" y="301.109667"/>
      </g>
     </g>
     <g id="text_3">
      <!-- 0.4 -->
      <defs>
       <path d="M 37.796875 64.3125 
L 12.890625 25.390625 
L 37.796875 25.390625 
z
M 35.203125 72.90625 
L 47.609375 72.90625 
L 47.609375 25.390625 
L 58.015625 25.390625 
L 58.015625 17.1875 
L 47.609375 17.1875 
L 47.609375 0 
L 37.796875 0 
L 37.796875 17.1875 
L 4.890625 17.1875 
L 4.890625 26.703125 
z
" id="DejaVuSans-34"/>
      </defs>
      <g transform="translate(200.055104 315.708104)scale(0.1 -0.1)">
       <use xlink:href="#DejaVuSans-30"/>
       <use x="63.623047" xlink:href="#DejaVuSans-2e"/>
       <use x="95.410156" xlink:href="#DejaVuSans-34"/>
      </g>
     </g>
    </g>
    <g id="xtick_4">
     <g id="line2d_4">
      <g>
       <use style="stroke:#000000;stroke-width:0.8;" x="289.965455" xlink:href="#m6aa6897d1e" y="301.109667"/>
      </g>
     </g>
     <g id="text_4">
      <!-- 0.6 -->
      <defs>
       <path d="M 33.015625 40.375 
Q 26.375 40.375 22.484375 35.828125 
Q 18.609375 31.296875 18.609375 23.390625 
Q 18.609375 15.53125 22.484375 10.953125 
Q 26.375 6.390625 33.015625 6.390625 
Q 39.65625 6.390625 43.53125 10.953125 
Q 47.40625 15.53125 47.40625 23.390625 
Q 47.40625 31.296875 43.53125 35.828125 
Q 39.65625 40.375 33.015625 40.375 
z
M 52.59375 71.296875 
L 52.59375 62.3125 
Q 48.875 64.0625 45.09375 64.984375 
Q 41.3125 65.921875 37.59375 65.921875 
Q 27.828125 65.921875 22.671875 59.328125 
Q 17.53125 52.734375 16.796875 39.40625 
Q 19.671875 43.65625 24.015625 45.921875 
Q 28.375 48.1875 33.59375 48.1875 
Q 44.578125 48.1875 50.953125 41.515625 
Q 57.328125 34.859375 57.328125 23.390625 
Q 57.328125 12.15625 50.6875 5.359375 
Q 44.046875 -1.421875 33.015625 -1.421875 
Q 20.359375 -1.421875 13.671875 8.265625 
Q 6.984375 17.96875 6.984375 36.375 
Q 6.984375 53.65625 15.1875 63.9375 
Q 23.390625 74.21875 37.203125 74.21875 
Q 40.921875 74.21875 44.703125 73.484375 
Q 48.484375 72.75 52.59375 71.296875 
z
" id="DejaVuSans-36"/>
      </defs>
      <g transform="translate(282.013892 315.708104)scale(0.1 -0.1)">
       <use xlink:href="#DejaVuSans-30"/>
       <use x="63.623047" xlink:href="#DejaVuSans-2e"/>
       <use x="95.410156" xlink:href="#DejaVuSans-36"/>
      </g>
     </g>
    </g>
    <g id="xtick_5">
     <g id="line2d_5">
      <g>
       <use style="stroke:#000000;stroke-width:0.8;" x="371.924242" xlink:href="#m6aa6897d1e" y="301.109667"/>
      </g>
     </g>
     <g id="text_5">
      <!-- 0.8 -->
      <defs>
       <path d="M 31.78125 34.625 
Q 24.75 34.625 20.71875 30.859375 
Q 16.703125 27.09375 16.703125 20.515625 
Q 16.703125 13.921875 20.71875 10.15625 
Q 24.75 6.390625 31.78125 6.390625 
Q 38.8125 6.390625 42.859375 10.171875 
Q 46.921875 13.96875 46.921875 20.515625 
Q 46.921875 27.09375 42.890625 30.859375 
Q 38.875 34.625 31.78125 34.625 
z
M 21.921875 38.8125 
Q 15.578125 40.375 12.03125 44.71875 
Q 8.5 49.078125 8.5 55.328125 
Q 8.5 64.0625 14.71875 69.140625 
Q 20.953125 74.21875 31.78125 74.21875 
Q 42.671875 74.21875 48.875 69.140625 
Q 55.078125 64.0625 55.078125 55.328125 
Q 55.078125 49.078125 51.53125 44.71875 
Q 48 40.375 41.703125 38.8125 
Q 48.828125 37.15625 52.796875 32.3125 
Q 56.78125 27.484375 56.78125 20.515625 
Q 56.78125 9.90625 50.3125 4.234375 
Q 43.84375 -1.421875 31.78125 -1.421875 
Q 19.734375 -1.421875 13.25 4.234375 
Q 6.78125 9.90625 6.78125 20.515625 
Q 6.78125 27.484375 10.78125 32.3125 
Q 14.796875 37.15625 21.921875 38.8125 
z
M 18.3125 54.390625 
Q 18.3125 48.734375 21.84375 45.5625 
Q 25.390625 42.390625 31.78125 42.390625 
Q 38.140625 42.390625 41.71875 45.5625 
Q 45.3125 48.734375 45.3125 54.390625 
Q 45.3125 60.0625 41.71875 63.234375 
Q 38.140625 66.40625 31.78125 66.40625 
Q 25.390625 66.40625 21.84375 63.234375 
Q 18.3125 60.0625 18.3125 54.390625 
z
" id="DejaVuSans-38"/>
      </defs>
      <g transform="translate(363.97268 315.708104)scale(0.1 -0.1)">
       <use xlink:href="#DejaVuSans-30"/>
       <use x="63.623047" xlink:href="#DejaVuSans-2e"/>
       <use x="95.410156" xlink:href="#DejaVuSans-38"/>
      </g>
     </g>
    </g>
    <g id="text_6">
     <!-- Magnetization (per site) -->
     <defs>
      <path d="M 9.8125 72.90625 
L 24.515625 72.90625 
L 43.109375 23.296875 
L 61.8125 72.90625 
L 76.515625 72.90625 
L 76.515625 0 
L 66.890625 0 
L 66.890625 64.015625 
L 48.09375 14.015625 
L 38.1875 14.015625 
L 19.390625 64.015625 
L 19.390625 0 
L 9.8125 0 
z
" id="DejaVuSans-4d"/>
      <path d="M 34.28125 27.484375 
Q 23.390625 27.484375 19.1875 25 
Q 14.984375 22.515625 14.984375 16.5 
Q 14.984375 11.71875 18.140625 8.90625 
Q 21.296875 6.109375 26.703125 6.109375 
Q 34.1875 6.109375 38.703125 11.40625 
Q 43.21875 16.703125 43.21875 25.484375 
L 43.21875 27.484375 
z
M 52.203125 31.203125 
L 52.203125 0 
L 43.21875 0 
L 43.21875 8.296875 
Q 40.140625 3.328125 35.546875 0.953125 
Q 30.953125 -1.421875 24.3125 -1.421875 
Q 15.921875 -1.421875 10.953125 3.296875 
Q 6 8.015625 6 15.921875 
Q 6 25.140625 12.171875 29.828125 
Q 18.359375 34.515625 30.609375 34.515625 
L 43.21875 34.515625 
L 43.21875 35.40625 
Q 43.21875 41.609375 39.140625 45 
Q 35.0625 48.390625 27.6875 48.390625 
Q 23 48.390625 18.546875 47.265625 
Q 14.109375 46.140625 10.015625 43.890625 
L 10.015625 52.203125 
Q 14.9375 54.109375 19.578125 55.046875 
Q 24.21875 56 28.609375 56 
Q 40.484375 56 46.34375 49.84375 
Q 52.203125 43.703125 52.203125 31.203125 
z
" id="DejaVuSans-61"/>
      <path d="M 45.40625 27.984375 
Q 45.40625 37.75 41.375 43.109375 
Q 37.359375 48.484375 30.078125 48.484375 
Q 22.859375 48.484375 18.828125 43.109375 
Q 14.796875 37.75 14.796875 27.984375 
Q 14.796875 18.265625 18.828125 12.890625 
Q 22.859375 7.515625 30.078125 7.515625 
Q 37.359375 7.515625 41.375 12.890625 
Q 45.40625 18.265625 45.40625 27.984375 
z
M 54.390625 6.78125 
Q 54.390625 -7.171875 48.1875 -13.984375 
Q 42 -20.796875 29.203125 -20.796875 
Q 24.46875 -20.796875 20.265625 -20.09375 
Q 16.0625 -19.390625 12.109375 -17.921875 
L 12.109375 -9.1875 
Q 16.0625 -11.328125 19.921875 -12.34375 
Q 23.78125 -13.375 27.78125 -13.375 
Q 36.625 -13.375 41.015625 -8.765625 
Q 45.40625 -4.15625 45.40625 5.171875 
L 45.40625 9.625 
Q 42.625 4.78125 38.28125 2.390625 
Q 33.9375 0 27.875 0 
Q 17.828125 0 11.671875 7.65625 
Q 5.515625 15.328125 5.515625 27.984375 
Q 5.515625 40.671875 11.671875 48.328125 
Q 17.828125 56 27.875 56 
Q 33.9375 56 38.28125 53.609375 
Q 42.625 51.21875 45.40625 46.390625 
L 45.40625 54.6875 
L 54.390625 54.6875 
z
" id="DejaVuSans-67"/>
      <path d="M 54.890625 33.015625 
L 54.890625 0 
L 45.90625 0 
L 45.90625 32.71875 
Q 45.90625 40.484375 42.875 44.328125 
Q 39.84375 48.1875 33.796875 48.1875 
Q 26.515625 48.1875 22.3125 43.546875 
Q 18.109375 38.921875 18.109375 30.90625 
L 18.109375 0 
L 9.078125 0 
L 9.078125 54.6875 
L 18.109375 54.6875 
L 18.109375 46.1875 
Q 21.34375 51.125 25.703125 53.5625 
Q 30.078125 56 35.796875 56 
Q 45.21875 56 50.046875 50.171875 
Q 54.890625 44.34375 54.890625 33.015625 
z
" id="DejaVuSans-6e"/>
      <path d="M 56.203125 29.59375 
L 56.203125 25.203125 
L 14.890625 25.203125 
Q 15.484375 15.921875 20.484375 11.0625 
Q 25.484375 6.203125 34.421875 6.203125 
Q 39.59375 6.203125 44.453125 7.46875 
Q 49.3125 8.734375 54.109375 11.28125 
L 54.109375 2.78125 
Q 49.265625 0.734375 44.1875 -0.34375 
Q 39.109375 -1.421875 33.890625 -1.421875 
Q 20.796875 -1.421875 13.15625 6.1875 
Q 5.515625 13.8125 5.515625 26.8125 
Q 5.515625 40.234375 12.765625 48.109375 
Q 20.015625 56 32.328125 56 
Q 43.359375 56 49.78125 48.890625 
Q 56.203125 41.796875 56.203125 29.59375 
z
M 47.21875 32.234375 
Q 47.125 39.59375 43.09375 43.984375 
Q 39.0625 48.390625 32.421875 48.390625 
Q 24.90625 48.390625 20.390625 44.140625 
Q 15.875 39.890625 15.1875 32.171875 
z
" id="DejaVuSans-65"/>
      <path d="M 18.3125 70.21875 
L 18.3125 54.6875 
L 36.8125 54.6875 
L 36.8125 47.703125 
L 18.3125 47.703125 
L 18.3125 18.015625 
Q 18.3125 11.328125 20.140625 9.421875 
Q 21.96875 7.515625 27.59375 7.515625 
L 36.8125 7.515625 
L 36.8125 0 
L 27.59375 0 
Q 17.1875 0 13.234375 3.875 
Q 9.28125 7.765625 9.28125 18.015625 
L 9.28125 47.703125 
L 2.6875 47.703125 
L 2.6875 54.6875 
L 9.28125 54.6875 
L 9.28125 70.21875 
z
" id="DejaVuSans-74"/>
      <path d="M 9.421875 54.6875 
L 18.40625 54.6875 
L 18.40625 0 
L 9.421875 0 
z
M 9.421875 75.984375 
L 18.40625 75.984375 
L 18.40625 64.59375 
L 9.421875 64.59375 
z
" id="DejaVuSans-69"/>
      <path d="M 5.515625 54.6875 
L 48.1875 54.6875 
L 48.1875 46.484375 
L 14.40625 7.171875 
L 48.1875 7.171875 
L 48.1875 0 
L 4.296875 0 
L 4.296875 8.203125 
L 38.09375 47.515625 
L 5.515625 47.515625 
z
" id="DejaVuSans-7a"/>
      <path d="M 30.609375 48.390625 
Q 23.390625 48.390625 19.1875 42.75 
Q 14.984375 37.109375 14.984375 27.296875 
Q 14.984375 17.484375 19.15625 11.84375 
Q 23.34375 6.203125 30.609375 6.203125 
Q 37.796875 6.203125 41.984375 11.859375 
Q 46.1875 17.53125 46.1875 27.296875 
Q 46.1875 37.015625 41.984375 42.703125 
Q 37.796875 48.390625 30.609375 48.390625 
z
M 30.609375 56 
Q 42.328125 56 49.015625 48.375 
Q 55.71875 40.765625 55.71875 27.296875 
Q 55.71875 13.875 49.015625 6.21875 
Q 42.328125 -1.421875 30.609375 -1.421875 
Q 18.84375 -1.421875 12.171875 6.21875 
Q 5.515625 13.875 5.515625 27.296875 
Q 5.515625 40.765625 12.171875 48.375 
Q 18.84375 56 30.609375 56 
z
" id="DejaVuSans-6f"/>
      <path id="DejaVuSans-20"/>
      <path d="M 31 75.875 
Q 24.46875 64.65625 21.28125 53.65625 
Q 18.109375 42.671875 18.109375 31.390625 
Q 18.109375 20.125 21.3125 9.0625 
Q 24.515625 -2 31 -13.1875 
L 23.1875 -13.1875 
Q 15.875 -1.703125 12.234375 9.375 
Q 8.59375 20.453125 8.59375 31.390625 
Q 8.59375 42.28125 12.203125 53.3125 
Q 15.828125 64.359375 23.1875 75.875 
z
" id="DejaVuSans-28"/>
      <path d="M 18.109375 8.203125 
L 18.109375 -20.796875 
L 9.078125 -20.796875 
L 9.078125 54.6875 
L 18.109375 54.6875 
L 18.109375 46.390625 
Q 20.953125 51.265625 25.265625 53.625 
Q 29.59375 56 35.59375 56 
Q 45.5625 56 51.78125 48.09375 
Q 58.015625 40.1875 58.015625 27.296875 
Q 58.015625 14.40625 51.78125 6.484375 
Q 45.5625 -1.421875 35.59375 -1.421875 
Q 29.59375 -1.421875 25.265625 0.953125 
Q 20.953125 3.328125 18.109375 8.203125 
z
M 48.6875 27.296875 
Q 48.6875 37.203125 44.609375 42.84375 
Q 40.53125 48.484375 33.40625 48.484375 
Q 26.265625 48.484375 22.1875 42.84375 
Q 18.109375 37.203125 18.109375 27.296875 
Q 18.109375 17.390625 22.1875 11.75 
Q 26.265625 6.109375 33.40625 6.109375 
Q 40.53125 6.109375 44.609375 11.75 
Q 48.6875 17.390625 48.6875 27.296875 
z
" id="DejaVuSans-70"/>
      <path d="M 41.109375 46.296875 
Q 39.59375 47.171875 37.8125 47.578125 
Q 36.03125 48 33.890625 48 
Q 26.265625 48 22.1875 43.046875 
Q 18.109375 38.09375 18.109375 28.8125 
L 18.109375 0 
L 9.078125 0 
L 9.078125 54.6875 
L 18.109375 54.6875 
L 18.109375 46.1875 
Q 20.953125 51.171875 25.484375 53.578125 
Q 30.03125 56 36.53125 56 
Q 37.453125 56 38.578125 55.875 
Q 39.703125 55.765625 41.0625 55.515625 
z
" id="DejaVuSans-72"/>
      <path d="M 44.28125 53.078125 
L 44.28125 44.578125 
Q 40.484375 46.53125 36.375 47.5 
Q 32.28125 48.484375 27.875 48.484375 
Q 21.1875 48.484375 17.84375 46.4375 
Q 14.5 44.390625 14.5 40.28125 
Q 14.5 37.15625 16.890625 35.375 
Q 19.28125 33.59375 26.515625 31.984375 
L 29.59375 31.296875 
Q 39.15625 29.25 43.1875 25.515625 
Q 47.21875 21.78125 47.21875 15.09375 
Q 47.21875 7.46875 41.1875 3.015625 
Q 35.15625 -1.421875 24.609375 -1.421875 
Q 20.21875 -1.421875 15.453125 -0.5625 
Q 10.6875 0.296875 5.421875 2 
L 5.421875 11.28125 
Q 10.40625 8.6875 15.234375 7.390625 
Q 20.0625 6.109375 24.8125 6.109375 
Q 31.15625 6.109375 34.5625 8.28125 
Q 37.984375 10.453125 37.984375 14.40625 
Q 37.984375 18.0625 35.515625 20.015625 
Q 33.0625 21.96875 24.703125 23.78125 
L 21.578125 24.515625 
Q 13.234375 26.265625 9.515625 29.90625 
Q 5.8125 33.546875 5.8125 39.890625 
Q 5.8125 47.609375 11.28125 51.796875 
Q 16.75 56 26.8125 56 
Q 31.78125 56 36.171875 55.265625 
Q 40.578125 54.546875 44.28125 53.078125 
z
" id="DejaVuSans-73"/>
      <path d="M 8.015625 75.875 
L 15.828125 75.875 
Q 23.140625 64.359375 26.78125 53.3125 
Q 30.421875 42.28125 30.421875 31.390625 
Q 30.421875 20.453125 26.78125 9.375 
Q 23.140625 -1.703125 15.828125 -13.1875 
L 8.015625 -13.1875 
Q 14.5 -2 17.703125 9.0625 
Q 20.90625 20.125 20.90625 31.390625 
Q 20.90625 42.671875 17.703125 53.65625 
Q 14.5 64.65625 8.015625 75.875 
z
" id="DejaVuSans-29"/>
     </defs>
     <g transform="translate(176.351094 329.386229)scale(0.1 -0.1)">
      <use xlink:href="#DejaVuSans-4d"/>
      <use x="86.279297" xlink:href="#DejaVuSans-61"/>
      <use x="147.558594" xlink:href="#DejaVuSans-67"/>
      <use x="211.035156" xlink:href="#DejaVuSans-6e"/>
      <use x="274.414062" xlink:href="#DejaVuSans-65"/>
      <use x="335.9375" xlink:href="#DejaVuSans-74"/>
      <use x="375.146484" xlink:href="#DejaVuSans-69"/>
      <use x="402.929688" xlink:href="#DejaVuSans-7a"/>
      <use x="455.419922" xlink:href="#DejaVuSans-61"/>
      <use x="516.699219" xlink:href="#DejaVuSans-74"/>
      <use x="555.908203" xlink:href="#DejaVuSans-69"/>
      <use x="583.691406" xlink:href="#DejaVuSans-6f"/>
      <use x="644.873047" xlink:href="#DejaVuSans-6e"/>
      <use x="708.251953" xlink:href="#DejaVuSans-20"/>
      <use x="740.039062" xlink:href="#DejaVuSans-28"/>
      <use x="779.052734" xlink:href="#DejaVuSans-70"/>
      <use x="842.529297" xlink:href="#DejaVuSans-65"/>
      <use x="904.052734" xlink:href="#DejaVuSans-72"/>
      <use x="945.166016" xlink:href="#DejaVuSans-20"/>
      <use x="976.953125" xlink:href="#DejaVuSans-73"/>
      <use x="1029.052734" xlink:href="#DejaVuSans-69"/>
      <use x="1056.835938" xlink:href="#DejaVuSans-74"/>
      <use x="1096.044922" xlink:href="#DejaVuSans-65"/>
      <use x="1157.568359" xlink:href="#DejaVuSans-29"/>
     </g>
    </g>
   </g>
   <g id="matplotlib.axis_2">
    <g id="text_7">
     <!-- Frequency -->
     <defs>
      <path d="M 9.8125 72.90625 
L 51.703125 72.90625 
L 51.703125 64.59375 
L 19.671875 64.59375 
L 19.671875 43.109375 
L 48.578125 43.109375 
L 48.578125 34.8125 
L 19.671875 34.8125 
L 19.671875 0 
L 9.8125 0 
z
" id="DejaVuSans-46"/>
      <path d="M 14.796875 27.296875 
Q 14.796875 17.390625 18.875 11.75 
Q 22.953125 6.109375 30.078125 6.109375 
Q 37.203125 6.109375 41.296875 11.75 
Q 45.40625 17.390625 45.40625 27.296875 
Q 45.40625 37.203125 41.296875 42.84375 
Q 37.203125 48.484375 30.078125 48.484375 
Q 22.953125 48.484375 18.875 42.84375 
Q 14.796875 37.203125 14.796875 27.296875 
z
M 45.40625 8.203125 
Q 42.578125 3.328125 38.25 0.953125 
Q 33.9375 -1.421875 27.875 -1.421875 
Q 17.96875 -1.421875 11.734375 6.484375 
Q 5.515625 14.40625 5.515625 27.296875 
Q 5.515625 40.1875 11.734375 48.09375 
Q 17.96875 56 27.875 56 
Q 33.9375 56 38.25 53.625 
Q 42.578125 51.265625 45.40625 46.390625 
L 45.40625 54.6875 
L 54.390625 54.6875 
L 54.390625 -20.796875 
L 45.40625 -20.796875 
z
" id="DejaVuSans-71"/>
      <path d="M 8.5 21.578125 
L 8.5 54.6875 
L 17.484375 54.6875 
L 17.484375 21.921875 
Q 17.484375 14.15625 20.5 10.265625 
Q 23.53125 6.390625 29.59375 6.390625 
Q 36.859375 6.390625 41.078125 11.03125 
Q 45.3125 15.671875 45.3125 23.6875 
L 45.3125 54.6875 
L 54.296875 54.6875 
L 54.296875 0 
L 45.3125 0 
L 45.3125 8.40625 
Q 42.046875 3.421875 37.71875 1 
Q 33.40625 -1.421875 27.6875 -1.421875 
Q 18.265625 -1.421875 13.375 4.4375 
Q 8.5 10.296875 8.5 21.578125 
z
M 31.109375 56 
z
" id="DejaVuSans-75"/>
      <path d="M 48.78125 52.59375 
L 48.78125 44.1875 
Q 44.96875 46.296875 41.140625 47.34375 
Q 37.3125 48.390625 33.40625 48.390625 
Q 24.65625 48.390625 19.8125 42.84375 
Q 14.984375 37.3125 14.984375 27.296875 
Q 14.984375 17.28125 19.8125 11.734375 
Q 24.65625 6.203125 33.40625 6.203125 
Q 37.3125 6.203125 41.140625 7.25 
Q 44.96875 8.296875 48.78125 10.40625 
L 48.78125 2.09375 
Q 45.015625 0.34375 40.984375 -0.53125 
Q 36.96875 -1.421875 32.421875 -1.421875 
Q 20.0625 -1.421875 12.78125 6.34375 
Q 5.515625 14.109375 5.515625 27.296875 
Q 5.515625 40.671875 12.859375 48.328125 
Q 20.21875 56 33.015625 56 
Q 37.15625 56 41.109375 55.140625 
Q 45.0625 54.296875 48.78125 52.59375 
z
" id="DejaVuSans-63"/>
      <path d="M 32.171875 -5.078125 
Q 28.375 -14.84375 24.75 -17.8125 
Q 21.140625 -20.796875 15.09375 -20.796875 
L 7.90625 -20.796875 
L 7.90625 -13.28125 
L 13.1875 -13.28125 
Q 16.890625 -13.28125 18.9375 -11.515625 
Q 21 -9.765625 23.484375 -3.21875 
L 25.09375 0.875 
L 2.984375 54.6875 
L 12.5 54.6875 
L 29.59375 11.921875 
L 46.6875 54.6875 
L 56.203125 54.6875 
z
" id="DejaVuSans-79"/>
     </defs>
     <g transform="translate(18.800313 183.45699)rotate(-90)scale(0.1 -0.1)">
      <use xlink:href="#DejaVuSans-46"/>
      <use x="57.410156" xlink:href="#DejaVuSans-72"/>
      <use x="98.492188" xlink:href="#DejaVuSans-65"/>
      <use x="160.015625" xlink:href="#DejaVuSans-71"/>
      <use x="223.492188" xlink:href="#DejaVuSans-75"/>
      <use x="286.871094" xlink:href="#DejaVuSans-65"/>
      <use x="348.394531" xlink:href="#DejaVuSans-6e"/>
      <use x="411.773438" xlink:href="#DejaVuSans-63"/>
      <use x="466.753906" xlink:href="#DejaVuSans-79"/>
     </g>
    </g>
   </g>
   <g id="line2d_6">
    <path clip-path="url(#pe8d4dda2bd)" d="M 192.191182 301.109667 
L 192.191182 13.209 
" style="fill:none;stroke:#000000;stroke-linecap:square;stroke-width:2;"/>
   </g>
   <g id="line2d_7">
    <path clip-path="url(#pe8d4dda2bd)" d="M 197.101582 301.109667 
L 197.101582 13.209 
" style="fill:none;stroke:#ff0000;stroke-linecap:square;stroke-width:2;"/>
   </g>
   <g id="line2d_8">
    <path clip-path="url(#pe8d4dda2bd)" d="M 187.280782 301.109667 
L 187.280782 13.209 
" style="fill:none;stroke:#ff0000;stroke-linecap:square;stroke-width:2;"/>
   </g>
   <g id="line2d_9">
    <path clip-path="url(#pe8d4dda2bd)" d="M 202.011981 301.109667 
L 202.011981 13.209 
" style="fill:none;opacity:0.3;stroke:#ff0000;stroke-linecap:square;stroke-width:2;"/>
   </g>
   <g id="line2d_10">
    <path clip-path="url(#pe8d4dda2bd)" d="M 182.370382 301.109667 
L 182.370382 13.209 
" style="fill:none;opacity:0.3;stroke:#ff0000;stroke-linecap:square;stroke-width:2;"/>
   </g>
   <g id="line2d_11">
    <path clip-path="url(#pe8d4dda2bd)" d="M 285.792183 301.109667 
L 285.792183 13.209 
" style="fill:none;stroke:#008000;stroke-linecap:square;stroke-width:2;"/>
   </g>
   <g id="line2d_12">
    <path clip-path="url(#pe8d4dda2bd)" d="M 98.590181 301.109667 
L 98.590181 13.209 
" style="fill:none;stroke:#008000;stroke-linecap:square;stroke-width:2;"/>
   </g>
   <g id="patch_53">
    <path d="M 24.88 301.109667 
L 24.88 13.209 
" style="fill:none;stroke:#000000;stroke-linecap:square;stroke-linejoin:miter;stroke-width:0.8;"/>
   </g>
   <g id="patch_54">
    <path d="M 447.48 301.109667 
L 447.48 13.209 
" style="fill:none;stroke:#000000;stroke-linecap:square;stroke-linejoin:miter;stroke-width:0.8;"/>
   </g>
   <g id="patch_55">
    <path d="M 24.88 301.109667 
L 447.48 301.109667 
" style="fill:none;stroke:#000000;stroke-linecap:square;stroke-linejoin:miter;stroke-width:0.8;"/>
   </g>
   <g id="patch_56">
    <path d="M 24.88 13.209 
L 447.48 13.209 
" style="fill:none;stroke:#000000;stroke-linecap:square;stroke-linejoin:miter;stroke-width:0.8;"/>
   </g>
   <g id="legend_1">
    <g id="patch_57">
     <path d="M 319.98 79.9215 
L 440.48 79.9215 
Q 442.48 79.9215 442.48 77.9215 
L 442.48 20.209 
Q 442.48 18.209 440.48 18.209 
L 319.98 18.209 
Q 317.98 18.209 317.98 20.209 
L 317.98 77.9215 
Q 317.98 79.9215 319.98 79.9215 
z
" style="fill:#ffffff;opacity:0.8;stroke:#cccccc;stroke-linejoin:miter;"/>
    </g>
    <g id="line2d_13">
     <path d="M 321.98 26.307437 
L 341.98 26.307437 
" style="fill:none;stroke:#000000;stroke-linecap:square;stroke-width:2;"/>
    </g>
    <g id="line2d_14"/>
    <g id="text_8">
     <!-- $ 0.361 $ (mean) -->
     <defs>
      <path d="M 40.578125 39.3125 
Q 47.65625 37.796875 51.625 33 
Q 55.609375 28.21875 55.609375 21.1875 
Q 55.609375 10.40625 48.1875 4.484375 
Q 40.765625 -1.421875 27.09375 -1.421875 
Q 22.515625 -1.421875 17.65625 -0.515625 
Q 12.796875 0.390625 7.625 2.203125 
L 7.625 11.71875 
Q 11.71875 9.328125 16.59375 8.109375 
Q 21.484375 6.890625 26.8125 6.890625 
Q 36.078125 6.890625 40.9375 10.546875 
Q 45.796875 14.203125 45.796875 21.1875 
Q 45.796875 27.640625 41.28125 31.265625 
Q 36.765625 34.90625 28.71875 34.90625 
L 20.21875 34.90625 
L 20.21875 43.015625 
L 29.109375 43.015625 
Q 36.375 43.015625 40.234375 45.921875 
Q 44.09375 48.828125 44.09375 54.296875 
Q 44.09375 59.90625 40.109375 62.90625 
Q 36.140625 65.921875 28.71875 65.921875 
Q 24.65625 65.921875 20.015625 65.03125 
Q 15.375 64.15625 9.8125 62.3125 
L 9.8125 71.09375 
Q 15.4375 72.65625 20.34375 73.4375 
Q 25.25 74.21875 29.59375 74.21875 
Q 40.828125 74.21875 47.359375 69.109375 
Q 53.90625 64.015625 53.90625 55.328125 
Q 53.90625 49.265625 50.4375 45.09375 
Q 46.96875 40.921875 40.578125 39.3125 
z
" id="DejaVuSans-33"/>
      <path d="M 12.40625 8.296875 
L 28.515625 8.296875 
L 28.515625 63.921875 
L 10.984375 60.40625 
L 10.984375 69.390625 
L 28.421875 72.90625 
L 38.28125 72.90625 
L 38.28125 8.296875 
L 54.390625 8.296875 
L 54.390625 0 
L 12.40625 0 
z
" id="DejaVuSans-31"/>
      <path d="M 52 44.1875 
Q 55.375 50.25 60.0625 53.125 
Q 64.75 56 71.09375 56 
Q 79.640625 56 84.28125 50.015625 
Q 88.921875 44.046875 88.921875 33.015625 
L 88.921875 0 
L 79.890625 0 
L 79.890625 32.71875 
Q 79.890625 40.578125 77.09375 44.375 
Q 74.3125 48.1875 68.609375 48.1875 
Q 61.625 48.1875 57.5625 43.546875 
Q 53.515625 38.921875 53.515625 30.90625 
L 53.515625 0 
L 44.484375 0 
L 44.484375 32.71875 
Q 44.484375 40.625 41.703125 44.40625 
Q 38.921875 48.1875 33.109375 48.1875 
Q 26.21875 48.1875 22.15625 43.53125 
Q 18.109375 38.875 18.109375 30.90625 
L 18.109375 0 
L 9.078125 0 
L 9.078125 54.6875 
L 18.109375 54.6875 
L 18.109375 46.1875 
Q 21.1875 51.21875 25.484375 53.609375 
Q 29.78125 56 35.6875 56 
Q 41.65625 56 45.828125 52.96875 
Q 50 49.953125 52 44.1875 
z
" id="DejaVuSans-6d"/>
     </defs>
     <g transform="translate(349.98 29.807437)scale(0.1 -0.1)">
      <use transform="translate(0 0.125)" xlink:href="#DejaVuSans-30"/>
      <use transform="translate(63.623047 0.125)" xlink:href="#DejaVuSans-2e"/>
      <use transform="translate(95.410156 0.125)" xlink:href="#DejaVuSans-33"/>
      <use transform="translate(159.033203 0.125)" xlink:href="#DejaVuSans-36"/>
      <use transform="translate(222.65625 0.125)" xlink:href="#DejaVuSans-31"/>
      <use transform="translate(286.279297 0.125)" xlink:href="#DejaVuSans-20"/>
      <use transform="translate(318.066406 0.125)" xlink:href="#DejaVuSans-28"/>
      <use transform="translate(357.080078 0.125)" xlink:href="#DejaVuSans-6d"/>
      <use transform="translate(454.492188 0.125)" xlink:href="#DejaVuSans-65"/>
      <use transform="translate(516.015625 0.125)" xlink:href="#DejaVuSans-61"/>
      <use transform="translate(577.294922 0.125)" xlink:href="#DejaVuSans-6e"/>
      <use transform="translate(640.673828 0.125)" xlink:href="#DejaVuSans-29"/>
     </g>
    </g>
    <g id="line2d_15">
     <path d="M 321.98 40.985563 
L 341.98 40.985563 
" style="fill:none;stroke:#ff0000;stroke-linecap:square;stroke-width:2;"/>
    </g>
    <g id="line2d_16"/>
    <g id="text_9">
     <!-- $ \pm 0.012 $ (σ error) -->
     <defs>
      <path d="M 46 62.703125 
L 46 43.796875 
L 73.1875 43.796875 
L 73.1875 35.5 
L 46 35.5 
L 46 16.609375 
L 37.796875 16.609375 
L 37.796875 35.5 
L 10.59375 35.5 
L 10.59375 43.796875 
L 37.796875 43.796875 
L 37.796875 62.703125 
z
M 10.59375 8.296875 
L 73.1875 8.296875 
L 73.1875 0 
L 10.59375 0 
z
" id="DejaVuSans-b1"/>
      <path d="M 30.609375 47.5625 
Q 23.1875 47.5625 19.1875 42.1875 
Q 14.984375 36.578125 14.984375 27.296875 
Q 14.984375 17.484375 19.15625 11.84375 
Q 23.34375 6.203125 30.609375 6.203125 
Q 37.796875 6.203125 41.984375 11.859375 
Q 46.1875 17.53125 46.1875 27.296875 
Q 46.1875 36.234375 42 42.1875 
Q 38.140625 47.5625 30.609375 47.5625 
z
M 30.609375 54.6875 
L 60.453125 54.6875 
L 60.453125 45.703125 
L 50.390625 45.703125 
Q 55.71875 38.09375 55.71875 27.296875 
Q 55.71875 13.875 49.03125 6.25 
Q 42.328125 -1.421875 30.609375 -1.421875 
Q 18.84375 -1.421875 12.203125 6.25 
Q 5.515625 13.875 5.515625 27.296875 
Q 5.515625 40.828125 12.203125 48.390625 
Q 17.71875 54.6875 30.609375 54.6875 
z
" id="DejaVuSans-3c3"/>
     </defs>
     <g transform="translate(349.98 44.485563)scale(0.1 -0.1)">
      <use transform="translate(0 0.125)" xlink:href="#DejaVuSans-b1"/>
      <use transform="translate(83.789062 0.125)" xlink:href="#DejaVuSans-30"/>
      <use transform="translate(147.412109 0.125)" xlink:href="#DejaVuSans-2e"/>
      <use transform="translate(179.199219 0.125)" xlink:href="#DejaVuSans-30"/>
      <use transform="translate(242.822266 0.125)" xlink:href="#DejaVuSans-31"/>
      <use transform="translate(306.445312 0.125)" xlink:href="#DejaVuSans-32"/>
      <use transform="translate(370.068359 0.125)" xlink:href="#DejaVuSans-20"/>
      <use transform="translate(401.855469 0.125)" xlink:href="#DejaVuSans-28"/>
      <use transform="translate(440.869141 0.125)" xlink:href="#DejaVuSans-3c3"/>
      <use transform="translate(504.248047 0.125)" xlink:href="#DejaVuSans-20"/>
      <use transform="translate(536.035156 0.125)" xlink:href="#DejaVuSans-65"/>
      <use transform="translate(597.558594 0.125)" xlink:href="#DejaVuSans-72"/>
      <use transform="translate(638.671875 0.125)" xlink:href="#DejaVuSans-72"/>
      <use transform="translate(679.785156 0.125)" xlink:href="#DejaVuSans-6f"/>
      <use transform="translate(740.966797 0.125)" xlink:href="#DejaVuSans-72"/>
      <use transform="translate(782.080078 0.125)" xlink:href="#DejaVuSans-29"/>
     </g>
    </g>
    <g id="line2d_17">
     <path d="M 321.98 55.663687 
L 341.98 55.663687 
" style="fill:none;opacity:0.3;stroke:#ff0000;stroke-linecap:square;stroke-width:2;"/>
    </g>
    <g id="line2d_18"/>
    <g id="text_10">
     <!-- $ \pm 0.024 $ (2σ error) -->
     <g transform="translate(349.98 59.163687)scale(0.1 -0.1)">
      <use transform="translate(0 0.125)" xlink:href="#DejaVuSans-b1"/>
      <use transform="translate(83.789062 0.125)" xlink:href="#DejaVuSans-30"/>
      <use transform="translate(147.412109 0.125)" xlink:href="#DejaVuSans-2e"/>
      <use transform="translate(179.199219 0.125)" xlink:href="#DejaVuSans-30"/>
      <use transform="translate(242.822266 0.125)" xlink:href="#DejaVuSans-32"/>
      <use transform="translate(306.445312 0.125)" xlink:href="#DejaVuSans-34"/>
      <use transform="translate(370.068359 0.125)" xlink:href="#DejaVuSans-20"/>
      <use transform="translate(401.855469 0.125)" xlink:href="#DejaVuSans-28"/>
      <use transform="translate(440.869141 0.125)" xlink:href="#DejaVuSans-32"/>
      <use transform="translate(504.492188 0.125)" xlink:href="#DejaVuSans-3c3"/>
      <use transform="translate(567.871094 0.125)" xlink:href="#DejaVuSans-20"/>
      <use transform="translate(599.658203 0.125)" xlink:href="#DejaVuSans-65"/>
      <use transform="translate(661.181641 0.125)" xlink:href="#DejaVuSans-72"/>
      <use transform="translate(702.294922 0.125)" xlink:href="#DejaVuSans-72"/>
      <use transform="translate(743.408203 0.125)" xlink:href="#DejaVuSans-6f"/>
      <use transform="translate(804.589844 0.125)" xlink:href="#DejaVuSans-72"/>
      <use transform="translate(845.703125 0.125)" xlink:href="#DejaVuSans-29"/>
     </g>
    </g>
    <g id="line2d_19">
     <path d="M 321.98 70.341813 
L 341.98 70.341813 
" style="fill:none;stroke:#008000;stroke-linecap:square;stroke-width:2;"/>
    </g>
    <g id="line2d_20"/>
    <g id="text_11">
     <!-- $ \pm 0.228 $ (std) -->
     <defs>
      <path d="M 45.40625 46.390625 
L 45.40625 75.984375 
L 54.390625 75.984375 
L 54.390625 0 
L 45.40625 0 
L 45.40625 8.203125 
Q 42.578125 3.328125 38.25 0.953125 
Q 33.9375 -1.421875 27.875 -1.421875 
Q 17.96875 -1.421875 11.734375 6.484375 
Q 5.515625 14.40625 5.515625 27.296875 
Q 5.515625 40.1875 11.734375 48.09375 
Q 17.96875 56 27.875 56 
Q 33.9375 56 38.25 53.625 
Q 42.578125 51.265625 45.40625 46.390625 
z
M 14.796875 27.296875 
Q 14.796875 17.390625 18.875 11.75 
Q 22.953125 6.109375 30.078125 6.109375 
Q 37.203125 6.109375 41.296875 11.75 
Q 45.40625 17.390625 45.40625 27.296875 
Q 45.40625 37.203125 41.296875 42.84375 
Q 37.203125 48.484375 30.078125 48.484375 
Q 22.953125 48.484375 18.875 42.84375 
Q 14.796875 37.203125 14.796875 27.296875 
z
" id="DejaVuSans-64"/>
     </defs>
     <g transform="translate(349.98 73.841813)scale(0.1 -0.1)">
      <use transform="translate(0 0.015625)" xlink:href="#DejaVuSans-b1"/>
      <use transform="translate(83.789062 0.015625)" xlink:href="#DejaVuSans-30"/>
      <use transform="translate(147.412109 0.015625)" xlink:href="#DejaVuSans-2e"/>
      <use transform="translate(179.121094 0.015625)" xlink:href="#DejaVuSans-32"/>
      <use transform="translate(242.744141 0.015625)" xlink:href="#DejaVuSans-32"/>
      <use transform="translate(306.367188 0.015625)" xlink:href="#DejaVuSans-38"/>
      <use transform="translate(369.990234 0.015625)" xlink:href="#DejaVuSans-20"/>
      <use transform="translate(401.777344 0.015625)" xlink:href="#DejaVuSans-28"/>
      <use transform="translate(440.791016 0.015625)" xlink:href="#DejaVuSans-73"/>
      <use transform="translate(492.890625 0.015625)" xlink:href="#DejaVuSans-74"/>
      <use transform="translate(532.099609 0.015625)" xlink:href="#DejaVuSans-64"/>
      <use transform="translate(595.576172 0.015625)" xlink:href="#DejaVuSans-29"/>
     </g>
    </g>
   </g>
  </g>
 </g>
 <defs>
  <clipPath id="pe8d4dda2bd">
   <rect height="287.900667" width="422.6" x="24.88" y="13.209"/>
  </clipPath>
 </defs>
</svg>
