<?xml version="1.0" encoding="utf-8" standalone="no"?>
<!DOCTYPE svg PUBLIC "-//W3C//DTD SVG 1.1//EN"
  "http://www.w3.org/Graphics/SVG/1.1/DTD/svg11.dtd">
<!-- Created with matplotlib (http://matplotlib.org/) -->
<svg height="432pt" version="1.1" viewBox="0 0 576 432" width="576pt" xmlns="http://www.w3.org/2000/svg" xmlns:xlink="http://www.w3.org/1999/xlink">
 <defs>
  <style type="text/css">
*{stroke-linecap:butt;stroke-linejoin:round;}
  </style>
 </defs>
 <g id="figure_1">
  <g id="patch_1">
   <path d="
M0 432
L576 432
L576 0
L0 0
z
" style="fill:#ffffff;"/>
  </g>
  <g id="axes_1">
   <g id="patch_2">
    <path d="
M30.56 384.84
L554.567 384.84
L554.567 12.96
L30.56 12.96
z
" style="fill:#ffffff;"/>
   </g>
   <g id="patch_3">
    <path clip-path="url(#pb4073553ca)" d="
M30.56 384.84
L41.0401 384.84
L41.0401 236.088
L30.56 236.088
z
" style="fill:#808080;opacity:0.5;stroke:#000000;"/>
   </g>
   <g id="patch_4">
    <path clip-path="url(#pb4073553ca)" d="
M41.0401 384.84
L51.5203 384.84
L51.5203 139.399
L41.0401 139.399
z
" style="fill:#808080;opacity:0.5;stroke:#000000;"/>
   </g>
   <g id="patch_5">
    <path clip-path="url(#pb4073553ca)" d="
M51.5203 384.84
L62.0004 384.84
L62.0004 384.84
L51.5203 384.84
z
" style="fill:#808080;opacity:0.5;stroke:#000000;"/>
   </g>
   <g id="patch_6">
    <path clip-path="url(#pb4073553ca)" d="
M62.0004 384.84
L72.4806 384.84
L72.4806 94.7736
L62.0004 94.7736
z
" style="fill:#808080;opacity:0.5;stroke:#000000;"/>
   </g>
   <g id="patch_7">
    <path clip-path="url(#pb4073553ca)" d="
M72.4806 384.84
L82.9607 384.84
L82.9607 191.462
L72.4806 191.462
z
" style="fill:#808080;opacity:0.5;stroke:#000000;"/>
   </g>
   <g id="patch_8">
    <path clip-path="url(#pb4073553ca)" d="
M82.9607 384.84
L93.4409 384.84
L93.4409 384.84
L82.9607 384.84
z
" style="fill:#808080;opacity:0.5;stroke:#000000;"/>
   </g>
   <g id="patch_9">
    <path clip-path="url(#pb4073553ca)" d="
M93.4409 384.84
L103.921 384.84
L103.921 87.336
L93.4409 87.336
z
" style="fill:#808080;opacity:0.5;stroke:#000000;"/>
   </g>
   <g id="patch_10">
    <path clip-path="url(#pb4073553ca)" d="
M103.921 384.84
L114.401 384.84
L114.401 79.8984
L103.921 79.8984
z
" style="fill:#808080;opacity:0.5;stroke:#000000;"/>
   </g>
   <g id="patch_11">
    <path clip-path="url(#pb4073553ca)" d="
M114.401 384.84
L124.881 384.84
L124.881 384.84
L114.401 384.84
z
" style="fill:#808080;opacity:0.5;stroke:#000000;"/>
   </g>
   <g id="patch_12">
    <path clip-path="url(#pb4073553ca)" d="
M124.881 384.84
L135.361 384.84
L135.361 124.524
L124.881 124.524
z
" style="fill:#808080;opacity:0.5;stroke:#000000;"/>
   </g>
   <g id="patch_13">
    <path clip-path="url(#pb4073553ca)" d="
M135.361 384.84
L145.842 384.84
L145.842 109.649
L135.361 109.649
z
" style="fill:#808080;opacity:0.5;stroke:#000000;"/>
   </g>
   <g id="patch_14">
    <path clip-path="url(#pb4073553ca)" d="
M145.842 384.84
L156.322 384.84
L156.322 384.84
L145.842 384.84
z
" style="fill:#808080;opacity:0.5;stroke:#000000;"/>
   </g>
   <g id="patch_15">
    <path clip-path="url(#pb4073553ca)" d="
M156.322 384.84
L166.802 384.84
L166.802 20.3976
L156.322 20.3976
z
" style="fill:#808080;opacity:0.5;stroke:#000000;"/>
   </g>
   <g id="patch_16">
    <path clip-path="url(#pb4073553ca)" d="
M166.802 384.84
L177.282 384.84
L177.282 384.84
L166.802 384.84
z
" style="fill:#808080;opacity:0.5;stroke:#000000;"/>
   </g>
   <g id="patch_17">
    <path clip-path="url(#pb4073553ca)" d="
M177.282 384.84
L187.762 384.84
L187.762 109.649
L177.282 109.649
z
" style="fill:#808080;opacity:0.5;stroke:#000000;"/>
   </g>
   <g id="patch_18">
    <path clip-path="url(#pb4073553ca)" d="
M187.762 384.84
L198.242 384.84
L198.242 131.962
L187.762 131.962
z
" style="fill:#808080;opacity:0.5;stroke:#000000;"/>
   </g>
   <g id="patch_19">
    <path clip-path="url(#pb4073553ca)" d="
M198.242 384.84
L208.722 384.84
L208.722 384.84
L198.242 384.84
z
" style="fill:#808080;opacity:0.5;stroke:#000000;"/>
   </g>
   <g id="patch_20">
    <path clip-path="url(#pb4073553ca)" d="
M208.722 384.84
L219.203 384.84
L219.203 20.3976
L208.722 20.3976
z
" style="fill:#808080;opacity:0.5;stroke:#000000;"/>
   </g>
   <g id="patch_21">
    <path clip-path="url(#pb4073553ca)" d="
M219.203 384.84
L229.683 384.84
L229.683 124.524
L219.203 124.524
z
" style="fill:#808080;opacity:0.5;stroke:#000000;"/>
   </g>
   <g id="patch_22">
    <path clip-path="url(#pb4073553ca)" d="
M229.683 384.84
L240.163 384.84
L240.163 384.84
L229.683 384.84
z
" style="fill:#808080;opacity:0.5;stroke:#000000;"/>
   </g>
   <g id="patch_23">
    <path clip-path="url(#pb4073553ca)" d="
M240.163 384.84
L250.643 384.84
L250.643 42.7104
L240.163 42.7104
z
" style="fill:#808080;opacity:0.5;stroke:#000000;"/>
   </g>
   <g id="patch_24">
    <path clip-path="url(#pb4073553ca)" d="
M250.643 384.84
L261.123 384.84
L261.123 27.8352
L250.643 27.8352
z
" style="fill:#808080;opacity:0.5;stroke:#000000;"/>
   </g>
   <g id="patch_25">
    <path clip-path="url(#pb4073553ca)" d="
M261.123 384.84
L271.603 384.84
L271.603 384.84
L261.123 384.84
z
" style="fill:#808080;opacity:0.5;stroke:#000000;"/>
   </g>
   <g id="patch_26">
    <path clip-path="url(#pb4073553ca)" d="
M271.603 384.84
L282.084 384.84
L282.084 65.0232
L271.603 65.0232
z
" style="fill:#808080;opacity:0.5;stroke:#000000;"/>
   </g>
   <g id="patch_27">
    <path clip-path="url(#pb4073553ca)" d="
M282.084 384.84
L292.564 384.84
L292.564 384.84
L282.084 384.84
z
" style="fill:#808080;opacity:0.5;stroke:#000000;"/>
   </g>
   <g id="patch_28">
    <path clip-path="url(#pb4073553ca)" d="
M292.564 384.84
L303.044 384.84
L303.044 20.3976
L292.564 20.3976
z
" style="fill:#808080;opacity:0.5;stroke:#000000;"/>
   </g>
   <g id="patch_29">
    <path clip-path="url(#pb4073553ca)" d="
M303.044 384.84
L313.524 384.84
L313.524 117.086
L303.044 117.086
z
" style="fill:#808080;opacity:0.5;stroke:#000000;"/>
   </g>
   <g id="patch_30">
    <path clip-path="url(#pb4073553ca)" d="
M313.524 384.84
L324.004 384.84
L324.004 384.84
L313.524 384.84
z
" style="fill:#808080;opacity:0.5;stroke:#000000;"/>
   </g>
   <g id="patch_31">
    <path clip-path="url(#pb4073553ca)" d="
M324.004 384.84
L334.484 384.84
L334.484 102.211
L324.004 102.211
z
" style="fill:#808080;opacity:0.5;stroke:#000000;"/>
   </g>
   <g id="patch_32">
    <path clip-path="url(#pb4073553ca)" d="
M334.484 384.84
L344.964 384.84
L344.964 221.213
L334.484 221.213
z
" style="fill:#808080;opacity:0.5;stroke:#000000;"/>
   </g>
   <g id="patch_33">
    <path clip-path="url(#pb4073553ca)" d="
M344.964 384.84
L355.445 384.84
L355.445 384.84
L344.964 384.84
z
" style="fill:#808080;opacity:0.5;stroke:#000000;"/>
   </g>
   <g id="patch_34">
    <path clip-path="url(#pb4073553ca)" d="
M355.445 384.84
L365.925 384.84
L365.925 146.837
L355.445 146.837
z
" style="fill:#808080;opacity:0.5;stroke:#000000;"/>
   </g>
   <g id="patch_35">
    <path clip-path="url(#pb4073553ca)" d="
M365.925 384.84
L376.405 384.84
L376.405 176.587
L365.925 176.587
z
" style="fill:#808080;opacity:0.5;stroke:#000000;"/>
   </g>
   <g id="patch_36">
    <path clip-path="url(#pb4073553ca)" d="
M376.405 384.84
L386.885 384.84
L386.885 384.84
L376.405 384.84
z
" style="fill:#808080;opacity:0.5;stroke:#000000;"/>
   </g>
   <g id="patch_37">
    <path clip-path="url(#pb4073553ca)" d="
M386.885 384.84
L397.365 384.84
L397.365 117.086
L386.885 117.086
z
" style="fill:#808080;opacity:0.5;stroke:#000000;"/>
   </g>
   <g id="patch_38">
    <path clip-path="url(#pb4073553ca)" d="
M397.365 384.84
L407.845 384.84
L407.845 206.338
L397.365 206.338
z
" style="fill:#808080;opacity:0.5;stroke:#000000;"/>
   </g>
   <g id="patch_39">
    <path clip-path="url(#pb4073553ca)" d="
M407.845 384.84
L418.325 384.84
L418.325 384.84
L407.845 384.84
z
" style="fill:#808080;opacity:0.5;stroke:#000000;"/>
   </g>
   <g id="patch_40">
    <path clip-path="url(#pb4073553ca)" d="
M418.325 384.84
L428.806 384.84
L428.806 169.15
L418.325 169.15
z
" style="fill:#808080;opacity:0.5;stroke:#000000;"/>
   </g>
   <g id="patch_41">
    <path clip-path="url(#pb4073553ca)" d="
M428.806 384.84
L439.286 384.84
L439.286 384.84
L428.806 384.84
z
" style="fill:#808080;opacity:0.5;stroke:#000000;"/>
   </g>
   <g id="patch_42">
    <path clip-path="url(#pb4073553ca)" d="
M439.286 384.84
L449.766 384.84
L449.766 176.587
L439.286 176.587
z
" style="fill:#808080;opacity:0.5;stroke:#000000;"/>
   </g>
   <g id="patch_43">
    <path clip-path="url(#pb4073553ca)" d="
M449.766 384.84
L460.246 384.84
L460.246 213.775
L449.766 213.775
z
" style="fill:#808080;opacity:0.5;stroke:#000000;"/>
   </g>
   <g id="patch_44">
    <path clip-path="url(#pb4073553ca)" d="
M460.246 384.84
L470.726 384.84
L470.726 384.84
L460.246 384.84
z
" style="fill:#808080;opacity:0.5;stroke:#000000;"/>
   </g>
   <g id="patch_45">
    <path clip-path="url(#pb4073553ca)" d="
M470.726 384.84
L481.206 384.84
L481.206 228.65
L470.726 228.65
z
" style="fill:#808080;opacity:0.5;stroke:#000000;"/>
   </g>
   <g id="patch_46">
    <path clip-path="url(#pb4073553ca)" d="
M481.206 384.84
L491.686 384.84
L491.686 310.464
L481.206 310.464
z
" style="fill:#808080;opacity:0.5;stroke:#000000;"/>
   </g>
   <g id="patch_47">
    <path clip-path="url(#pb4073553ca)" d="
M491.686 384.84
L502.167 384.84
L502.167 384.84
L491.686 384.84
z
" style="fill:#808080;opacity:0.5;stroke:#000000;"/>
   </g>
   <g id="patch_48">
    <path clip-path="url(#pb4073553ca)" d="
M502.167 384.84
L512.647 384.84
L512.647 340.214
L502.167 340.214
z
" style="fill:#808080;opacity:0.5;stroke:#000000;"/>
   </g>
   <g id="patch_49">
    <path clip-path="url(#pb4073553ca)" d="
M512.647 384.84
L523.127 384.84
L523.127 355.09
L512.647 355.09
z
" style="fill:#808080;opacity:0.5;stroke:#000000;"/>
   </g>
   <g id="patch_50">
    <path clip-path="url(#pb4073553ca)" d="
M523.127 384.84
L533.607 384.84
L533.607 384.84
L523.127 384.84
z
" style="fill:#808080;opacity:0.5;stroke:#000000;"/>
   </g>
   <g id="patch_51">
    <path clip-path="url(#pb4073553ca)" d="
M533.607 384.84
L544.087 384.84
L544.087 377.402
L533.607 377.402
z
" style="fill:#808080;opacity:0.5;stroke:#000000;"/>
   </g>
   <g id="patch_52">
    <path clip-path="url(#pb4073553ca)" d="
M544.087 384.84
L554.567 384.84
L554.567 377.402
L544.087 377.402
z
" style="fill:#808080;opacity:0.5;stroke:#000000;"/>
   </g>
   <g id="line2d_1">
    <path clip-path="url(#pb4073553ca)" d="
M247.204 384.84
L247.204 12.96" style="fill:none;stroke:#000000;stroke-linecap:square;stroke-width:2.0;"/>
   </g>
   <g id="line2d_2">
    <path clip-path="url(#pb4073553ca)" d="
M255.436 384.84
L255.436 12.96" style="fill:none;stroke:#ff0000;stroke-linecap:square;stroke-width:2.0;"/>
   </g>
   <g id="line2d_3">
    <path clip-path="url(#pb4073553ca)" d="
M238.973 384.84
L238.973 12.96" style="fill:none;stroke:#ff0000;stroke-linecap:square;stroke-width:2.0;"/>
   </g>
   <g id="line2d_4">
    <path clip-path="url(#pb4073553ca)" d="
M263.667 384.84
L263.667 12.96" style="fill:none;opacity:0.3;stroke:#ff0000;stroke-linecap:square;stroke-width:2.0;"/>
   </g>
   <g id="line2d_5">
    <path clip-path="url(#pb4073553ca)" d="
M230.741 384.84
L230.741 12.96" style="fill:none;opacity:0.3;stroke:#ff0000;stroke-linecap:square;stroke-width:2.0;"/>
   </g>
   <g id="line2d_6">
    <path clip-path="url(#pb4073553ca)" d="
M373.568 384.84
L373.568 12.96" style="fill:none;stroke:#008000;stroke-linecap:square;stroke-width:2.0;"/>
   </g>
   <g id="line2d_7">
    <path clip-path="url(#pb4073553ca)" d="
M120.84 384.84
L120.84 12.96" style="fill:none;stroke:#008000;stroke-linecap:square;stroke-width:2.0;"/>
   </g>
   <g id="matplotlib.axis_1">
    <g id="xtick_1">
     <g id="line2d_8">
      <defs>
       <path d="
M0 0
L0 -4" id="m93b0483c22" style="stroke:#000000;stroke-width:0.5;"/>
      </defs>
      <g>
       <use style="stroke:#000000;stroke-width:0.5;" x="30.56" xlink:href="#m93b0483c22" y="384.84"/>
      </g>
     </g>
     <g id="line2d_9">
      <defs>
       <path d="
M0 0
L0 4" id="m741efc42ff" style="stroke:#000000;stroke-width:0.5;"/>
      </defs>
      <g>
       <use style="stroke:#000000;stroke-width:0.5;" x="30.56" xlink:href="#m741efc42ff" y="12.96"/>
      </g>
     </g>
     <g id="text_1">
      <!-- 0.0 -->
      <defs>
       <path d="
M31.7812 66.4062
Q24.1719 66.4062 20.3281 58.9062
Q16.5 51.4219 16.5 36.375
Q16.5 21.3906 20.3281 13.8906
Q24.1719 6.39062 31.7812 6.39062
Q39.4531 6.39062 43.2812 13.8906
Q47.125 21.3906 47.125 36.375
Q47.125 51.4219 43.2812 58.9062
Q39.4531 66.4062 31.7812 66.4062
M31.7812 74.2188
Q44.0469 74.2188 50.5156 64.5156
Q56.9844 54.8281 56.9844 36.375
Q56.9844 17.9688 50.5156 8.26562
Q44.0469 -1.42188 31.7812 -1.42188
Q19.5312 -1.42188 13.0625 8.26562
Q6.59375 17.9688 6.59375 36.375
Q6.59375 54.8281 13.0625 64.5156
Q19.5312 74.2188 31.7812 74.2188" id="DejaVuSans-30"/>
       <path d="
M10.6875 12.4062
L21 12.4062
L21 0
L10.6875 0
z
" id="DejaVuSans-2e"/>
      </defs>
      <g transform="translate(21.8121875 397.958125)scale(0.12 -0.12)">
       <use xlink:href="#DejaVuSans-30"/>
       <use x="63.623046875" xlink:href="#DejaVuSans-2e"/>
       <use x="95.41015625" xlink:href="#DejaVuSans-30"/>
      </g>
     </g>
    </g>
    <g id="xtick_2">
     <g id="line2d_10">
      <g>
       <use style="stroke:#000000;stroke-width:0.5;" x="135.36146875" xlink:href="#m93b0483c22" y="384.84"/>
      </g>
     </g>
     <g id="line2d_11">
      <g>
       <use style="stroke:#000000;stroke-width:0.5;" x="135.36146875" xlink:href="#m741efc42ff" y="12.96"/>
      </g>
     </g>
     <g id="text_2">
      <!-- 0.2 -->
      <defs>
       <path d="
M19.1875 8.29688
L53.6094 8.29688
L53.6094 0
L7.32812 0
L7.32812 8.29688
Q12.9375 14.1094 22.625 23.8906
Q32.3281 33.6875 34.8125 36.5312
Q39.5469 41.8438 41.4219 45.5312
Q43.3125 49.2188 43.3125 52.7812
Q43.3125 58.5938 39.2344 62.25
Q35.1562 65.9219 28.6094 65.9219
Q23.9688 65.9219 18.8125 64.3125
Q13.6719 62.7031 7.8125 59.4219
L7.8125 69.3906
Q13.7656 71.7812 18.9375 73
Q24.125 74.2188 28.4219 74.2188
Q39.75 74.2188 46.4844 68.5469
Q53.2188 62.8906 53.2188 53.4219
Q53.2188 48.9219 51.5312 44.8906
Q49.8594 40.875 45.4062 35.4062
Q44.1875 33.9844 37.6406 27.2188
Q31.1094 20.4531 19.1875 8.29688" id="DejaVuSans-32"/>
      </defs>
      <g transform="translate(126.81615625 397.958125)scale(0.12 -0.12)">
       <use xlink:href="#DejaVuSans-30"/>
       <use x="63.623046875" xlink:href="#DejaVuSans-2e"/>
       <use x="95.41015625" xlink:href="#DejaVuSans-32"/>
      </g>
     </g>
    </g>
    <g id="xtick_3">
     <g id="line2d_12">
      <g>
       <use style="stroke:#000000;stroke-width:0.5;" x="240.1629375" xlink:href="#m93b0483c22" y="384.84"/>
      </g>
     </g>
     <g id="line2d_13">
      <g>
       <use style="stroke:#000000;stroke-width:0.5;" x="240.1629375" xlink:href="#m741efc42ff" y="12.96"/>
      </g>
     </g>
     <g id="text_3">
      <!-- 0.4 -->
      <defs>
       <path d="
M37.7969 64.3125
L12.8906 25.3906
L37.7969 25.3906
z

M35.2031 72.9062
L47.6094 72.9062
L47.6094 25.3906
L58.0156 25.3906
L58.0156 17.1875
L47.6094 17.1875
L47.6094 0
L37.7969 0
L37.7969 17.1875
L4.89062 17.1875
L4.89062 26.7031
z
" id="DejaVuSans-34"/>
      </defs>
      <g transform="translate(231.35325 397.958125)scale(0.12 -0.12)">
       <use xlink:href="#DejaVuSans-30"/>
       <use x="63.623046875" xlink:href="#DejaVuSans-2e"/>
       <use x="95.41015625" xlink:href="#DejaVuSans-34"/>
      </g>
     </g>
    </g>
    <g id="xtick_4">
     <g id="line2d_14">
      <g>
       <use style="stroke:#000000;stroke-width:0.5;" x="344.96440625" xlink:href="#m93b0483c22" y="384.84"/>
      </g>
     </g>
     <g id="line2d_15">
      <g>
       <use style="stroke:#000000;stroke-width:0.5;" x="344.96440625" xlink:href="#m741efc42ff" y="12.96"/>
      </g>
     </g>
     <g id="text_4">
      <!-- 0.6 -->
      <defs>
       <path d="
M33.0156 40.375
Q26.375 40.375 22.4844 35.8281
Q18.6094 31.2969 18.6094 23.3906
Q18.6094 15.5312 22.4844 10.9531
Q26.375 6.39062 33.0156 6.39062
Q39.6562 6.39062 43.5312 10.9531
Q47.4062 15.5312 47.4062 23.3906
Q47.4062 31.2969 43.5312 35.8281
Q39.6562 40.375 33.0156 40.375
M52.5938 71.2969
L52.5938 62.3125
Q48.875 64.0625 45.0938 64.9844
Q41.3125 65.9219 37.5938 65.9219
Q27.8281 65.9219 22.6719 59.3281
Q17.5312 52.7344 16.7969 39.4062
Q19.6719 43.6562 24.0156 45.9219
Q28.375 48.1875 33.5938 48.1875
Q44.5781 48.1875 50.9531 41.5156
Q57.3281 34.8594 57.3281 23.3906
Q57.3281 12.1562 50.6875 5.35938
Q44.0469 -1.42188 33.0156 -1.42188
Q20.3594 -1.42188 13.6719 8.26562
Q6.98438 17.9688 6.98438 36.375
Q6.98438 53.6562 15.1875 63.9375
Q23.3906 74.2188 37.2031 74.2188
Q40.9219 74.2188 44.7031 73.4844
Q48.4844 72.75 52.5938 71.2969" id="DejaVuSans-36"/>
      </defs>
      <g transform="translate(336.19596875 397.958125)scale(0.12 -0.12)">
       <use xlink:href="#DejaVuSans-30"/>
       <use x="63.623046875" xlink:href="#DejaVuSans-2e"/>
       <use x="95.41015625" xlink:href="#DejaVuSans-36"/>
      </g>
     </g>
    </g>
    <g id="xtick_5">
     <g id="line2d_16">
      <g>
       <use style="stroke:#000000;stroke-width:0.5;" x="449.765875" xlink:href="#m93b0483c22" y="384.84"/>
      </g>
     </g>
     <g id="line2d_17">
      <g>
       <use style="stroke:#000000;stroke-width:0.5;" x="449.765875" xlink:href="#m741efc42ff" y="12.96"/>
      </g>
     </g>
     <g id="text_5">
      <!-- 0.8 -->
      <defs>
       <path d="
M31.7812 34.625
Q24.75 34.625 20.7188 30.8594
Q16.7031 27.0938 16.7031 20.5156
Q16.7031 13.9219 20.7188 10.1562
Q24.75 6.39062 31.7812 6.39062
Q38.8125 6.39062 42.8594 10.1719
Q46.9219 13.9688 46.9219 20.5156
Q46.9219 27.0938 42.8906 30.8594
Q38.875 34.625 31.7812 34.625
M21.9219 38.8125
Q15.5781 40.375 12.0312 44.7188
Q8.5 49.0781 8.5 55.3281
Q8.5 64.0625 14.7188 69.1406
Q20.9531 74.2188 31.7812 74.2188
Q42.6719 74.2188 48.875 69.1406
Q55.0781 64.0625 55.0781 55.3281
Q55.0781 49.0781 51.5312 44.7188
Q48 40.375 41.7031 38.8125
Q48.8281 37.1562 52.7969 32.3125
Q56.7812 27.4844 56.7812 20.5156
Q56.7812 9.90625 50.3125 4.23438
Q43.8438 -1.42188 31.7812 -1.42188
Q19.7344 -1.42188 13.25 4.23438
Q6.78125 9.90625 6.78125 20.5156
Q6.78125 27.4844 10.7812 32.3125
Q14.7969 37.1562 21.9219 38.8125
M18.3125 54.3906
Q18.3125 48.7344 21.8438 45.5625
Q25.3906 42.3906 31.7812 42.3906
Q38.1406 42.3906 41.7188 45.5625
Q45.3125 48.7344 45.3125 54.3906
Q45.3125 60.0625 41.7188 63.2344
Q38.1406 66.4062 31.7812 66.4062
Q25.3906 66.4062 21.8438 63.2344
Q18.3125 60.0625 18.3125 54.3906" id="DejaVuSans-38"/>
      </defs>
      <g transform="translate(441.03025 397.958125)scale(0.12 -0.12)">
       <use xlink:href="#DejaVuSans-30"/>
       <use x="63.623046875" xlink:href="#DejaVuSans-2e"/>
       <use x="95.41015625" xlink:href="#DejaVuSans-38"/>
      </g>
     </g>
    </g>
    <g id="xtick_6">
     <g id="line2d_18">
      <g>
       <use style="stroke:#000000;stroke-width:0.5;" x="554.56734375" xlink:href="#m93b0483c22" y="384.84"/>
      </g>
     </g>
     <g id="line2d_19">
      <g>
       <use style="stroke:#000000;stroke-width:0.5;" x="554.56734375" xlink:href="#m741efc42ff" y="12.96"/>
      </g>
     </g>
     <g id="text_6">
      <!-- 1.0 -->
      <defs>
       <path d="
M12.4062 8.29688
L28.5156 8.29688
L28.5156 63.9219
L10.9844 60.4062
L10.9844 69.3906
L28.4219 72.9062
L38.2812 72.9062
L38.2812 8.29688
L54.3906 8.29688
L54.3906 0
L12.4062 0
z
" id="DejaVuSans-31"/>
      </defs>
      <g transform="translate(546.08296875 397.958125)scale(0.12 -0.12)">
       <use xlink:href="#DejaVuSans-31"/>
       <use x="63.623046875" xlink:href="#DejaVuSans-2e"/>
       <use x="95.41015625" xlink:href="#DejaVuSans-30"/>
      </g>
     </g>
    </g>
    <g id="text_7">
     <!-- Magnetization (per site) -->
     <defs>
      <path d="
M9.8125 72.9062
L24.5156 72.9062
L43.1094 23.2969
L61.8125 72.9062
L76.5156 72.9062
L76.5156 0
L66.8906 0
L66.8906 64.0156
L48.0938 14.0156
L38.1875 14.0156
L19.3906 64.0156
L19.3906 0
L9.8125 0
z
" id="DejaVuSans-4d"/>
      <path d="
M8.01562 75.875
L15.8281 75.875
Q23.1406 64.3594 26.7812 53.3125
Q30.4219 42.2812 30.4219 31.3906
Q30.4219 20.4531 26.7812 9.375
Q23.1406 -1.70312 15.8281 -13.1875
L8.01562 -13.1875
Q14.5 -2 17.7031 9.0625
Q20.9062 20.125 20.9062 31.3906
Q20.9062 42.6719 17.7031 53.6562
Q14.5 64.6562 8.01562 75.875" id="DejaVuSans-29"/>
      <path d="
M30.6094 48.3906
Q23.3906 48.3906 19.1875 42.75
Q14.9844 37.1094 14.9844 27.2969
Q14.9844 17.4844 19.1562 11.8438
Q23.3438 6.20312 30.6094 6.20312
Q37.7969 6.20312 41.9844 11.8594
Q46.1875 17.5312 46.1875 27.2969
Q46.1875 37.0156 41.9844 42.7031
Q37.7969 48.3906 30.6094 48.3906
M30.6094 56
Q42.3281 56 49.0156 48.375
Q55.7188 40.7656 55.7188 27.2969
Q55.7188 13.875 49.0156 6.21875
Q42.3281 -1.42188 30.6094 -1.42188
Q18.8438 -1.42188 12.1719 6.21875
Q5.51562 13.875 5.51562 27.2969
Q5.51562 40.7656 12.1719 48.375
Q18.8438 56 30.6094 56" id="DejaVuSans-6f"/>
      <path d="
M54.8906 33.0156
L54.8906 0
L45.9062 0
L45.9062 32.7188
Q45.9062 40.4844 42.875 44.3281
Q39.8438 48.1875 33.7969 48.1875
Q26.5156 48.1875 22.3125 43.5469
Q18.1094 38.9219 18.1094 30.9062
L18.1094 0
L9.07812 0
L9.07812 54.6875
L18.1094 54.6875
L18.1094 46.1875
Q21.3438 51.125 25.7031 53.5625
Q30.0781 56 35.7969 56
Q45.2188 56 50.0469 50.1719
Q54.8906 44.3438 54.8906 33.0156" id="DejaVuSans-6e"/>
      <path d="
M5.51562 54.6875
L48.1875 54.6875
L48.1875 46.4844
L14.4062 7.17188
L48.1875 7.17188
L48.1875 0
L4.29688 0
L4.29688 8.20312
L38.0938 47.5156
L5.51562 47.5156
z
" id="DejaVuSans-7a"/>
      <path d="
M18.1094 8.20312
L18.1094 -20.7969
L9.07812 -20.7969
L9.07812 54.6875
L18.1094 54.6875
L18.1094 46.3906
Q20.9531 51.2656 25.2656 53.625
Q29.5938 56 35.5938 56
Q45.5625 56 51.7812 48.0938
Q58.0156 40.1875 58.0156 27.2969
Q58.0156 14.4062 51.7812 6.48438
Q45.5625 -1.42188 35.5938 -1.42188
Q29.5938 -1.42188 25.2656 0.953125
Q20.9531 3.32812 18.1094 8.20312
M48.6875 27.2969
Q48.6875 37.2031 44.6094 42.8438
Q40.5312 48.4844 33.4062 48.4844
Q26.2656 48.4844 22.1875 42.8438
Q18.1094 37.2031 18.1094 27.2969
Q18.1094 17.3906 22.1875 11.75
Q26.2656 6.10938 33.4062 6.10938
Q40.5312 6.10938 44.6094 11.75
Q48.6875 17.3906 48.6875 27.2969" id="DejaVuSans-70"/>
      <path id="DejaVuSans-20"/>
      <path d="
M18.3125 70.2188
L18.3125 54.6875
L36.8125 54.6875
L36.8125 47.7031
L18.3125 47.7031
L18.3125 18.0156
Q18.3125 11.3281 20.1406 9.42188
Q21.9688 7.51562 27.5938 7.51562
L36.8125 7.51562
L36.8125 0
L27.5938 0
Q17.1875 0 13.2344 3.875
Q9.28125 7.76562 9.28125 18.0156
L9.28125 47.7031
L2.6875 47.7031
L2.6875 54.6875
L9.28125 54.6875
L9.28125 70.2188
z
" id="DejaVuSans-74"/>
      <path d="
M45.4062 27.9844
Q45.4062 37.75 41.375 43.1094
Q37.3594 48.4844 30.0781 48.4844
Q22.8594 48.4844 18.8281 43.1094
Q14.7969 37.75 14.7969 27.9844
Q14.7969 18.2656 18.8281 12.8906
Q22.8594 7.51562 30.0781 7.51562
Q37.3594 7.51562 41.375 12.8906
Q45.4062 18.2656 45.4062 27.9844
M54.3906 6.78125
Q54.3906 -7.17188 48.1875 -13.9844
Q42 -20.7969 29.2031 -20.7969
Q24.4688 -20.7969 20.2656 -20.0938
Q16.0625 -19.3906 12.1094 -17.9219
L12.1094 -9.1875
Q16.0625 -11.3281 19.9219 -12.3438
Q23.7812 -13.375 27.7812 -13.375
Q36.625 -13.375 41.0156 -8.76562
Q45.4062 -4.15625 45.4062 5.17188
L45.4062 9.625
Q42.625 4.78125 38.2812 2.39062
Q33.9375 0 27.875 0
Q17.8281 0 11.6719 7.65625
Q5.51562 15.3281 5.51562 27.9844
Q5.51562 40.6719 11.6719 48.3281
Q17.8281 56 27.875 56
Q33.9375 56 38.2812 53.6094
Q42.625 51.2188 45.4062 46.3906
L45.4062 54.6875
L54.3906 54.6875
z
" id="DejaVuSans-67"/>
      <path d="
M31 75.875
Q24.4688 64.6562 21.2812 53.6562
Q18.1094 42.6719 18.1094 31.3906
Q18.1094 20.125 21.3125 9.0625
Q24.5156 -2 31 -13.1875
L23.1875 -13.1875
Q15.875 -1.70312 12.2344 9.375
Q8.59375 20.4531 8.59375 31.3906
Q8.59375 42.2812 12.2031 53.3125
Q15.8281 64.3594 23.1875 75.875
z
" id="DejaVuSans-28"/>
      <path d="
M56.2031 29.5938
L56.2031 25.2031
L14.8906 25.2031
Q15.4844 15.9219 20.4844 11.0625
Q25.4844 6.20312 34.4219 6.20312
Q39.5938 6.20312 44.4531 7.46875
Q49.3125 8.73438 54.1094 11.2812
L54.1094 2.78125
Q49.2656 0.734375 44.1875 -0.34375
Q39.1094 -1.42188 33.8906 -1.42188
Q20.7969 -1.42188 13.1562 6.1875
Q5.51562 13.8125 5.51562 26.8125
Q5.51562 40.2344 12.7656 48.1094
Q20.0156 56 32.3281 56
Q43.3594 56 49.7812 48.8906
Q56.2031 41.7969 56.2031 29.5938
M47.2188 32.2344
Q47.125 39.5938 43.0938 43.9844
Q39.0625 48.3906 32.4219 48.3906
Q24.9062 48.3906 20.3906 44.1406
Q15.875 39.8906 15.1875 32.1719
z
" id="DejaVuSans-65"/>
      <path d="
M41.1094 46.2969
Q39.5938 47.1719 37.8125 47.5781
Q36.0312 48 33.8906 48
Q26.2656 48 22.1875 43.0469
Q18.1094 38.0938 18.1094 28.8125
L18.1094 0
L9.07812 0
L9.07812 54.6875
L18.1094 54.6875
L18.1094 46.1875
Q20.9531 51.1719 25.4844 53.5781
Q30.0312 56 36.5312 56
Q37.4531 56 38.5781 55.875
Q39.7031 55.7656 41.0625 55.5156
z
" id="DejaVuSans-72"/>
      <path d="
M9.42188 54.6875
L18.4062 54.6875
L18.4062 0
L9.42188 0
z

M9.42188 75.9844
L18.4062 75.9844
L18.4062 64.5938
L9.42188 64.5938
z
" id="DejaVuSans-69"/>
      <path d="
M44.2812 53.0781
L44.2812 44.5781
Q40.4844 46.5312 36.375 47.5
Q32.2812 48.4844 27.875 48.4844
Q21.1875 48.4844 17.8438 46.4375
Q14.5 44.3906 14.5 40.2812
Q14.5 37.1562 16.8906 35.375
Q19.2812 33.5938 26.5156 31.9844
L29.5938 31.2969
Q39.1562 29.25 43.1875 25.5156
Q47.2188 21.7812 47.2188 15.0938
Q47.2188 7.46875 41.1875 3.01562
Q35.1562 -1.42188 24.6094 -1.42188
Q20.2188 -1.42188 15.4531 -0.5625
Q10.6875 0.296875 5.42188 2
L5.42188 11.2812
Q10.4062 8.6875 15.2344 7.39062
Q20.0625 6.10938 24.8125 6.10938
Q31.1562 6.10938 34.5625 8.28125
Q37.9844 10.4531 37.9844 14.4062
Q37.9844 18.0625 35.5156 20.0156
Q33.0625 21.9688 24.7031 23.7812
L21.5781 24.5156
Q13.2344 26.2656 9.51562 29.9062
Q5.8125 33.5469 5.8125 39.8906
Q5.8125 47.6094 11.2812 51.7969
Q16.75 56 26.8125 56
Q31.7812 56 36.1719 55.2656
Q40.5781 54.5469 44.2812 53.0781" id="DejaVuSans-73"/>
      <path d="
M34.2812 27.4844
Q23.3906 27.4844 19.1875 25
Q14.9844 22.5156 14.9844 16.5
Q14.9844 11.7188 18.1406 8.90625
Q21.2969 6.10938 26.7031 6.10938
Q34.1875 6.10938 38.7031 11.4062
Q43.2188 16.7031 43.2188 25.4844
L43.2188 27.4844
z

M52.2031 31.2031
L52.2031 0
L43.2188 0
L43.2188 8.29688
Q40.1406 3.32812 35.5469 0.953125
Q30.9531 -1.42188 24.3125 -1.42188
Q15.9219 -1.42188 10.9531 3.29688
Q6 8.01562 6 15.9219
Q6 25.1406 12.1719 29.8281
Q18.3594 34.5156 30.6094 34.5156
L43.2188 34.5156
L43.2188 35.4062
Q43.2188 41.6094 39.1406 45
Q35.0625 48.3906 27.6875 48.3906
Q23 48.3906 18.5469 47.2656
Q14.1094 46.1406 10.0156 43.8906
L10.0156 52.2031
Q14.9375 54.1094 19.5781 55.0469
Q24.2188 56 28.6094 56
Q40.4844 56 46.3438 49.8438
Q52.2031 43.7031 52.2031 31.2031" id="DejaVuSans-61"/>
     </defs>
     <g transform="translate(221.284609375 414.571875)scale(0.12 -0.12)">
      <use xlink:href="#DejaVuSans-4d"/>
      <use x="86.279296875" xlink:href="#DejaVuSans-61"/>
      <use x="147.55859375" xlink:href="#DejaVuSans-67"/>
      <use x="211.03515625" xlink:href="#DejaVuSans-6e"/>
      <use x="274.4140625" xlink:href="#DejaVuSans-65"/>
      <use x="335.9375" xlink:href="#DejaVuSans-74"/>
      <use x="375.146484375" xlink:href="#DejaVuSans-69"/>
      <use x="402.9296875" xlink:href="#DejaVuSans-7a"/>
      <use x="455.419921875" xlink:href="#DejaVuSans-61"/>
      <use x="516.69921875" xlink:href="#DejaVuSans-74"/>
      <use x="555.908203125" xlink:href="#DejaVuSans-69"/>
      <use x="583.69140625" xlink:href="#DejaVuSans-6f"/>
      <use x="644.873046875" xlink:href="#DejaVuSans-6e"/>
      <use x="708.251953125" xlink:href="#DejaVuSans-20"/>
      <use x="740.0390625" xlink:href="#DejaVuSans-28"/>
      <use x="779.052734375" xlink:href="#DejaVuSans-70"/>
      <use x="842.529296875" xlink:href="#DejaVuSans-65"/>
      <use x="904.052734375" xlink:href="#DejaVuSans-72"/>
      <use x="945.166015625" xlink:href="#DejaVuSans-20"/>
      <use x="976.953125" xlink:href="#DejaVuSans-73"/>
      <use x="1029.05273438" xlink:href="#DejaVuSans-69"/>
      <use x="1056.8359375" xlink:href="#DejaVuSans-74"/>
      <use x="1096.04492188" xlink:href="#DejaVuSans-65"/>
      <use x="1157.56835938" xlink:href="#DejaVuSans-29"/>
     </g>
    </g>
   </g>
   <g id="matplotlib.axis_2">
    <g id="text_8">
     <!-- Frequency -->
     <defs>
      <path d="
M8.5 21.5781
L8.5 54.6875
L17.4844 54.6875
L17.4844 21.9219
Q17.4844 14.1562 20.5 10.2656
Q23.5312 6.39062 29.5938 6.39062
Q36.8594 6.39062 41.0781 11.0312
Q45.3125 15.6719 45.3125 23.6875
L45.3125 54.6875
L54.2969 54.6875
L54.2969 0
L45.3125 0
L45.3125 8.40625
Q42.0469 3.42188 37.7188 1
Q33.4062 -1.42188 27.6875 -1.42188
Q18.2656 -1.42188 13.375 4.4375
Q8.5 10.2969 8.5 21.5781
M31.1094 56
z
" id="DejaVuSans-75"/>
      <path d="
M32.1719 -5.07812
Q28.375 -14.8438 24.75 -17.8125
Q21.1406 -20.7969 15.0938 -20.7969
L7.90625 -20.7969
L7.90625 -13.2812
L13.1875 -13.2812
Q16.8906 -13.2812 18.9375 -11.5156
Q21 -9.76562 23.4844 -3.21875
L25.0938 0.875
L2.98438 54.6875
L12.5 54.6875
L29.5938 11.9219
L46.6875 54.6875
L56.2031 54.6875
z
" id="DejaVuSans-79"/>
      <path d="
M9.8125 72.9062
L51.7031 72.9062
L51.7031 64.5938
L19.6719 64.5938
L19.6719 43.1094
L48.5781 43.1094
L48.5781 34.8125
L19.6719 34.8125
L19.6719 0
L9.8125 0
z
" id="DejaVuSans-46"/>
      <path d="
M14.7969 27.2969
Q14.7969 17.3906 18.875 11.75
Q22.9531 6.10938 30.0781 6.10938
Q37.2031 6.10938 41.2969 11.75
Q45.4062 17.3906 45.4062 27.2969
Q45.4062 37.2031 41.2969 42.8438
Q37.2031 48.4844 30.0781 48.4844
Q22.9531 48.4844 18.875 42.8438
Q14.7969 37.2031 14.7969 27.2969
M45.4062 8.20312
Q42.5781 3.32812 38.25 0.953125
Q33.9375 -1.42188 27.875 -1.42188
Q17.9688 -1.42188 11.7344 6.48438
Q5.51562 14.4062 5.51562 27.2969
Q5.51562 40.1875 11.7344 48.0938
Q17.9688 56 27.875 56
Q33.9375 56 38.25 53.625
Q42.5781 51.2656 45.4062 46.3906
L45.4062 54.6875
L54.3906 54.6875
L54.3906 -20.7969
L45.4062 -20.7969
z
" id="DejaVuSans-71"/>
      <path d="
M48.7812 52.5938
L48.7812 44.1875
Q44.9688 46.2969 41.1406 47.3438
Q37.3125 48.3906 33.4062 48.3906
Q24.6562 48.3906 19.8125 42.8438
Q14.9844 37.3125 14.9844 27.2969
Q14.9844 17.2812 19.8125 11.7344
Q24.6562 6.20312 33.4062 6.20312
Q37.3125 6.20312 41.1406 7.25
Q44.9688 8.29688 48.7812 10.4062
L48.7812 2.09375
Q45.0156 0.34375 40.9844 -0.53125
Q36.9688 -1.42188 32.4219 -1.42188
Q20.0625 -1.42188 12.7812 6.34375
Q5.51562 14.1094 5.51562 27.2969
Q5.51562 40.6719 12.8594 48.3281
Q20.2188 56 33.0156 56
Q37.1562 56 41.1094 55.1406
Q45.0625 54.2969 48.7812 52.5938" id="DejaVuSans-63"/>
     </defs>
     <g transform="translate(23.064375 229.1278125)rotate(-90.0)scale(0.12 -0.12)">
      <use xlink:href="#DejaVuSans-46"/>
      <use x="50.26953125" xlink:href="#DejaVuSans-72"/>
      <use x="89.1328125" xlink:href="#DejaVuSans-65"/>
      <use x="150.65625" xlink:href="#DejaVuSans-71"/>
      <use x="214.1328125" xlink:href="#DejaVuSans-75"/>
      <use x="277.51171875" xlink:href="#DejaVuSans-65"/>
      <use x="339.03515625" xlink:href="#DejaVuSans-6e"/>
      <use x="402.4140625" xlink:href="#DejaVuSans-63"/>
      <use x="457.39453125" xlink:href="#DejaVuSans-79"/>
     </g>
    </g>
   </g>
   <g id="patch_53">
    <path d="
M30.56 12.96
L554.567 12.96" style="fill:none;stroke:#000000;"/>
   </g>
   <g id="patch_54">
    <path d="
M554.567 384.84
L554.567 12.96" style="fill:none;stroke:#000000;"/>
   </g>
   <g id="patch_55">
    <path d="
M30.56 384.84
L554.567 384.84" style="fill:none;stroke:#000000;"/>
   </g>
   <g id="patch_56">
    <path d="
M30.56 384.84
L30.56 12.96" style="fill:none;stroke:#000000;"/>
   </g>
   <g id="legend_1">
    <g id="patch_57">
     <path d="
M373.847 109.026
L547.367 109.026
L547.367 20.16
L373.847 20.16
L373.847 109.026
z
" style="fill:#ffffff;stroke:#000000;"/>
    </g>
    <g id="line2d_20">
     <path d="
M383.927 31.8217
L404.087 31.8217" style="fill:none;stroke:#000000;stroke-linecap:square;stroke-width:2.0;"/>
    </g>
    <g id="line2d_21"/>
    <g id="text_9">
     <!-- $ 0.413 $ (mean) -->
     <defs>
      <path d="
M9.51562 7.71875
Q11.8594 4.29688 15.8125 2.64062
Q19.7812 0.984375 24.3125 0.984375
Q30.125 0.984375 32.5625 5.9375
Q35.0156 10.8906 35.0156 17.1875
Q35.0156 20.0156 34.5 22.8438
Q33.9844 25.6875 32.7656 28.125
Q31.5469 30.5625 29.4219 32.0312
Q27.2969 33.5 24.2188 33.5
L17.5781 33.5
Q16.7031 33.5 16.7031 34.4219
L16.7031 35.2969
Q16.7031 36.0781 17.5781 36.0781
L23.0938 36.5312
Q26.6094 36.5312 28.9219 39.1562
Q31.25 41.7969 32.3281 45.5781
Q33.4062 49.3594 33.4062 52.7812
Q33.4062 57.5625 31.1562 60.6406
Q28.9062 63.7188 24.3125 63.7188
Q20.5156 63.7188 17.0469 62.2812
Q13.5781 60.8438 11.5312 57.9062
Q11.7188 57.9531 11.8594 57.9844
Q12.0156 58.0156 12.2031 58.0156
Q14.4531 58.0156 15.9688 56.4531
Q17.4844 54.8906 17.4844 52.6875
Q17.4844 50.5312 15.9688 48.9688
Q14.4531 47.4062 12.2031 47.4062
Q10.0156 47.4062 8.45312 48.9688
Q6.89062 50.5312 6.89062 52.6875
Q6.89062 56.9844 9.46875 60.1562
Q12.0625 63.3281 16.1406 64.9688
Q20.2188 66.6094 24.3125 66.6094
Q27.3438 66.6094 30.7031 65.7031
Q34.0781 64.7969 36.8125 63.1094
Q39.5469 61.4219 41.2812 58.7812
Q43.0156 56.1562 43.0156 52.7812
Q43.0156 48.5781 41.1406 45.0156
Q39.2656 41.4531 35.9844 38.8594
Q32.7188 36.2812 28.8125 35.0156
Q33.1562 34.1875 37.0625 31.7344
Q40.9688 29.2969 43.3281 25.4844
Q45.7031 21.6875 45.7031 17.2812
Q45.7031 11.7656 42.6719 7.29688
Q39.6562 2.82812 34.7188 0.3125
Q29.7812 -2.20312 24.3125 -2.20312
Q19.625 -2.20312 14.9062 -0.40625
Q10.2031 1.375 7.20312 4.9375
Q4.20312 8.5 4.20312 13.4844
Q4.20312 15.9688 5.85938 17.625
Q7.51562 19.2812 10.0156 19.2812
Q11.625 19.2812 12.9688 18.5312
Q14.3125 17.7812 15.0625 16.4062
Q15.8281 15.0469 15.8281 13.4844
Q15.8281 11.0312 14.1094 9.375
Q12.4062 7.71875 10.0156 7.71875
z
" id="Cmr10-33"/>
      <path d="
M9.28125 0
L9.28125 3.51562
Q21.7812 3.51562 21.7812 6.6875
L21.7812 59.1875
Q16.6094 56.6875 8.6875 56.6875
L8.6875 60.2031
Q20.9531 60.2031 27.2031 66.6094
L28.6094 66.6094
Q28.9531 66.6094 29.2656 66.3281
Q29.5938 66.0625 29.5938 65.7188
L29.5938 6.6875
Q29.5938 3.51562 42.0938 3.51562
L42.0938 0
z
" id="Cmr10-31"/>
      <path d="
M25 -2.20312
Q12.75 -2.20312 8.32812 7.875
Q3.90625 17.9688 3.90625 31.8906
Q3.90625 40.5781 5.48438 48.2344
Q7.07812 55.9062 11.7812 61.25
Q16.5 66.6094 25 66.6094
Q31.5938 66.6094 35.7812 63.375
Q39.9844 60.1562 42.1875 55.0469
Q44.3906 49.9531 45.1875 44.1094
Q46 38.2812 46 31.8906
Q46 23.2969 44.4062 15.7969
Q42.8281 8.29688 38.1875 3.04688
Q33.5469 -2.20312 25 -2.20312
M25 0.390625
Q30.5625 0.390625 33.2969 6.09375
Q36.0312 11.8125 36.6719 18.75
Q37.3125 25.6875 37.3125 33.5
Q37.3125 41.0156 36.6719 47.3594
Q36.0312 53.7188 33.3125 58.8594
Q30.6094 64.0156 25 64.0156
Q19.3438 64.0156 16.6094 58.8281
Q13.875 53.6562 13.2344 47.3281
Q12.5938 41.0156 12.5938 33.5
Q12.5938 27.9375 12.8594 23
Q13.1406 18.0625 14.3125 12.8125
Q15.4844 7.5625 18.0938 3.96875
Q20.7031 0.390625 25 0.390625" id="Cmr10-30"/>
      <path d="
M2.78125 16.5
L2.78125 20.0156
L33.6875 66.1094
Q34.0312 66.6094 34.7188 66.6094
L36.1875 66.6094
Q37.3125 66.6094 37.3125 65.4844
L37.3125 20.0156
L47.125 20.0156
L47.125 16.5
L37.3125 16.5
L37.3125 6.6875
Q37.3125 4.64062 40.2344 4.07812
Q43.1719 3.51562 47.0156 3.51562
L47.0156 0
L19.4844 0
L19.4844 3.51562
Q23.3438 3.51562 26.2656 4.07812
Q29.2031 4.64062 29.2031 6.6875
L29.2031 16.5
z

M6.10938 20.0156
L29.7812 20.0156
L29.7812 55.4219
z
" id="Cmr10-34"/>
      <path d="
M52 44.1875
Q55.375 50.25 60.0625 53.125
Q64.75 56 71.0938 56
Q79.6406 56 84.2812 50.0156
Q88.9219 44.0469 88.9219 33.0156
L88.9219 0
L79.8906 0
L79.8906 32.7188
Q79.8906 40.5781 77.0938 44.375
Q74.3125 48.1875 68.6094 48.1875
Q61.625 48.1875 57.5625 43.5469
Q53.5156 38.9219 53.5156 30.9062
L53.5156 0
L44.4844 0
L44.4844 32.7188
Q44.4844 40.625 41.7031 44.4062
Q38.9219 48.1875 33.1094 48.1875
Q26.2188 48.1875 22.1562 43.5312
Q18.1094 38.875 18.1094 30.9062
L18.1094 0
L9.07812 0
L9.07812 54.6875
L18.1094 54.6875
L18.1094 46.1875
Q21.1875 51.2188 25.4844 53.6094
Q29.7812 56 35.6875 56
Q41.6562 56 45.8281 52.9688
Q50 49.9531 52 44.1875" id="DejaVuSans-6d"/>
      <path d="
M8.40625 5.51562
Q8.40625 7.76562 10.0625 9.375
Q11.7188 10.9844 13.9219 10.9844
Q15.2812 10.9844 16.5938 10.25
Q17.9219 9.51562 18.6562 8.20312
Q19.3906 6.89062 19.3906 5.51562
Q19.3906 3.32812 17.7656 1.65625
Q16.1562 0 13.9219 0
Q11.7188 0 10.0625 1.65625
Q8.40625 3.32812 8.40625 5.51562" id="Cmmi10-3a"/>
     </defs>
     <g transform="translate(419.92734375 36.86175)scale(0.144 -0.144)">
      <use transform="translate(0.0 0.125)" xlink:href="#Cmr10-30"/>
      <use transform="translate(50.0 0.125)" xlink:href="#Cmmi10-3a"/>
      <use transform="translate(78.54296875 0.125)" xlink:href="#Cmr10-34"/>
      <use transform="translate(128.54296875 0.125)" xlink:href="#Cmr10-31"/>
      <use transform="translate(178.54296875 0.125)" xlink:href="#Cmr10-33"/>
      <use transform="translate(228.54296875 0.125)" xlink:href="#DejaVuSans-20"/>
      <use transform="translate(260.330078125 0.125)" xlink:href="#DejaVuSans-28"/>
      <use transform="translate(299.34375 0.125)" xlink:href="#DejaVuSans-6d"/>
      <use transform="translate(396.755859375 0.125)" xlink:href="#DejaVuSans-65"/>
      <use transform="translate(458.279296875 0.125)" xlink:href="#DejaVuSans-61"/>
      <use transform="translate(519.55859375 0.125)" xlink:href="#DejaVuSans-6e"/>
      <use transform="translate(582.9375 0.125)" xlink:href="#DejaVuSans-29"/>
     </g>
    </g>
    <g id="line2d_22">
     <path d="
M383.927 52.9582
L404.087 52.9582" style="fill:none;stroke:#ff0000;stroke-linecap:square;stroke-width:2.0;"/>
    </g>
    <g id="line2d_23"/>
    <g id="text_10">
     <!-- $ \pm 0.016 $ (σ error) -->
     <defs>
      <path d="
M30.6094 47.5625
Q23.1875 47.5625 19.1875 42.1875
Q14.9844 36.5781 14.9844 27.2969
Q14.9844 17.4844 19.1562 11.8438
Q23.3438 6.20312 30.6094 6.20312
Q37.7969 6.20312 41.9844 11.8594
Q46.1875 17.5312 46.1875 27.2969
Q46.1875 36.2344 42 42.1875
Q38.1406 47.5625 30.6094 47.5625
M30.6094 54.6875
L60.4531 54.6875
L60.4531 45.7031
L50.3906 45.7031
Q55.7188 38.0938 55.7188 27.2969
Q55.7188 13.875 49.0312 6.25
Q42.3281 -1.42188 30.6094 -1.42188
Q18.8438 -1.42188 12.2031 6.25
Q5.51562 13.875 5.51562 27.2969
Q5.51562 40.8281 12.2031 48.3906
Q17.7188 54.6875 30.6094 54.6875" id="DejaVuSans-3c3"/>
      <path d="
M7.51562 0
Q6.6875 0 6.14062 0.578125
Q5.60938 1.17188 5.60938 2
Q5.60938 2.73438 6.14062 3.35938
Q6.6875 4 7.51562 4
L36.9219 4
L36.9219 31.2969
L7.51562 31.2969
Q6.6875 31.2969 6.14062 31.9219
Q5.60938 32.5625 5.60938 33.2969
Q5.60938 34.0312 6.14062 34.6562
Q6.6875 35.2969 7.51562 35.2969
L36.9219 35.2969
L36.9219 64.7969
Q36.9219 65.5781 37.5 66.0938
Q38.0938 66.6094 38.9219 66.6094
Q39.5938 66.6094 40.25 66.0938
Q40.9219 65.5781 40.9219 64.7969
L40.9219 35.2969
L70.3125 35.2969
Q71.0469 35.2969 71.5781 34.6562
Q72.125 34.0312 72.125 33.2969
Q72.125 32.5625 71.5781 31.9219
Q71.0469 31.2969 70.3125 31.2969
L40.9219 31.2969
L40.9219 4
L70.3125 4
Q71.0469 4 71.5781 3.35938
Q72.125 2.73438 72.125 2
Q72.125 1.17188 71.5781 0.578125
Q71.0469 0 70.3125 0
z
" id="Cmsy10-a7"/>
      <path d="
M25 -2.20312
Q18.7969 -2.20312 14.6406 1.09375
Q10.5 4.39062 8.21875 9.64062
Q5.95312 14.8906 5.07812 20.6562
Q4.20312 26.4219 4.20312 32.3281
Q4.20312 40.2344 7.28125 48.1875
Q10.3594 56.1562 16.3281 61.375
Q22.3125 66.6094 30.5156 66.6094
Q33.9375 66.6094 36.8906 65.3125
Q39.8438 64.0156 41.5312 61.5
Q43.2188 58.9844 43.2188 55.4219
Q43.2188 53.375 41.8281 51.9844
Q40.4375 50.5938 38.375 50.5938
Q36.4219 50.5938 35 52
Q33.5938 53.4219 33.5938 55.4219
Q33.5938 57.375 35 58.7812
Q36.4219 60.2031 38.375 60.2031
L38.9219 60.2031
Q37.6406 62.0156 35.3281 62.8594
Q33.0156 63.7188 30.5156 63.7188
Q27.4844 63.7188 24.9219 62.3906
Q22.3594 61.0781 20.3125 58.8281
Q18.2656 56.5938 16.8906 53.875
Q15.5312 51.1719 14.7656 47.7031
Q14.0156 44.2344 13.8125 41.2031
Q13.625 38.1875 13.625 33.5938
Q15.375 37.7031 18.5938 40.3125
Q21.8281 42.9219 25.875 42.9219
Q30.3281 42.9219 33.9844 41.1094
Q37.6406 39.3125 40.2812 36.1094
Q42.9219 32.9062 44.3125 28.7969
Q45.7031 24.7031 45.7031 20.5156
Q45.7031 14.6562 43.0938 9.34375
Q40.4844 4.04688 35.7344 0.921875
Q31 -2.20312 25 -2.20312
M25 0.984375
Q28.8594 0.984375 31.2031 2.73438
Q33.5469 4.5 34.6406 7.39062
Q35.75 10.2969 36.0156 13.25
Q36.2812 16.2188 36.2812 20.5156
Q36.2812 26.1719 35.7344 30.1719
Q35.2031 34.1875 32.8125 37.2344
Q30.4219 40.2812 25.4844 40.2812
Q21.4375 40.2812 18.8281 37.5469
Q16.2188 34.8125 15.0156 30.6406
Q13.8125 26.4688 13.8125 22.6094
Q13.8125 21.2969 13.9219 20.6094
Q13.9219 20.4531 13.8906 20.3594
Q13.875 20.2656 13.8125 20.125
Q13.8125 15.8281 14.6875 11.4219
Q15.5781 7.03125 18.0625 4
Q20.5625 0.984375 25 0.984375" id="Cmr10-36"/>
     </defs>
     <g transform="translate(419.92734375 57.99825)scale(0.144 -0.144)">
      <use transform="translate(17.55859375 0.125)" xlink:href="#Cmsy10-a7"/>
      <use transform="translate(101.6171875 0.125)" xlink:href="#Cmr10-30"/>
      <use transform="translate(151.6171875 0.125)" xlink:href="#Cmmi10-3a"/>
      <use transform="translate(180.16015625 0.125)" xlink:href="#Cmr10-30"/>
      <use transform="translate(230.16015625 0.125)" xlink:href="#Cmr10-31"/>
      <use transform="translate(280.16015625 0.125)" xlink:href="#Cmr10-36"/>
      <use transform="translate(330.16015625 0.125)" xlink:href="#DejaVuSans-20"/>
      <use transform="translate(361.947265625 0.125)" xlink:href="#DejaVuSans-28"/>
      <use transform="translate(400.9609375 0.125)" xlink:href="#DejaVuSans-3c3"/>
      <use transform="translate(464.33984375 0.125)" xlink:href="#DejaVuSans-20"/>
      <use transform="translate(496.126953125 0.125)" xlink:href="#DejaVuSans-65"/>
      <use transform="translate(557.650390625 0.125)" xlink:href="#DejaVuSans-72"/>
      <use transform="translate(598.763671875 0.125)" xlink:href="#DejaVuSans-72"/>
      <use transform="translate(639.876953125 0.125)" xlink:href="#DejaVuSans-6f"/>
      <use transform="translate(701.05859375 0.125)" xlink:href="#DejaVuSans-72"/>
      <use transform="translate(742.171875 0.125)" xlink:href="#DejaVuSans-29"/>
     </g>
    </g>
    <g id="line2d_24">
     <path d="
M383.927 74.0947
L404.087 74.0947" style="fill:none;opacity:0.3;stroke:#ff0000;stroke-linecap:square;stroke-width:2.0;"/>
    </g>
    <g id="line2d_25"/>
    <g id="text_11">
     <!-- $ \pm 0.031 $ (2σ error) -->
     <g transform="translate(419.92734375 79.13475)scale(0.144 -0.144)">
      <use transform="translate(17.55859375 0.125)" xlink:href="#Cmsy10-a7"/>
      <use transform="translate(101.6171875 0.125)" xlink:href="#Cmr10-30"/>
      <use transform="translate(151.6171875 0.125)" xlink:href="#Cmmi10-3a"/>
      <use transform="translate(180.16015625 0.125)" xlink:href="#Cmr10-30"/>
      <use transform="translate(230.16015625 0.125)" xlink:href="#Cmr10-33"/>
      <use transform="translate(280.16015625 0.125)" xlink:href="#Cmr10-31"/>
      <use transform="translate(330.16015625 0.125)" xlink:href="#DejaVuSans-20"/>
      <use transform="translate(361.947265625 0.125)" xlink:href="#DejaVuSans-28"/>
      <use transform="translate(400.9609375 0.125)" xlink:href="#DejaVuSans-32"/>
      <use transform="translate(464.583984375 0.125)" xlink:href="#DejaVuSans-3c3"/>
      <use transform="translate(527.962890625 0.125)" xlink:href="#DejaVuSans-20"/>
      <use transform="translate(559.75 0.125)" xlink:href="#DejaVuSans-65"/>
      <use transform="translate(621.2734375 0.125)" xlink:href="#DejaVuSans-72"/>
      <use transform="translate(662.38671875 0.125)" xlink:href="#DejaVuSans-72"/>
      <use transform="translate(703.5 0.125)" xlink:href="#DejaVuSans-6f"/>
      <use transform="translate(764.681640625 0.125)" xlink:href="#DejaVuSans-72"/>
      <use transform="translate(805.794921875 0.125)" xlink:href="#DejaVuSans-29"/>
     </g>
    </g>
    <g id="line2d_26">
     <path d="
M383.927 95.2312
L404.087 95.2312" style="fill:none;stroke:#008000;stroke-linecap:square;stroke-width:2.0;"/>
    </g>
    <g id="line2d_27"/>
    <g id="text_12">
     <!-- $ \pm 0.241 $ (std) -->
     <defs>
      <path d="
M4.98438 0
L4.98438 2.6875
Q4.98438 2.9375 5.17188 3.21875
L20.7031 20.4062
Q24.2188 24.2188 26.4062 26.7969
Q28.6094 29.3906 30.75 32.7656
Q32.9062 36.1406 34.1562 39.625
Q35.4062 43.1094 35.4062 47.0156
Q35.4062 51.125 33.8906 54.8594
Q32.375 58.5938 29.375 60.8438
Q26.375 63.0938 22.125 63.0938
Q17.7812 63.0938 14.3125 60.4688
Q10.8438 57.8594 9.42188 53.7188
Q9.8125 53.8125 10.5 53.8125
Q12.75 53.8125 14.3281 52.2969
Q15.9219 50.7812 15.9219 48.3906
Q15.9219 46.0938 14.3281 44.5
Q12.75 42.9219 10.5 42.9219
Q8.15625 42.9219 6.5625 44.5469
Q4.98438 46.1875 4.98438 48.3906
Q4.98438 52.1562 6.39062 55.4375
Q7.8125 58.7344 10.4688 61.2969
Q13.1406 63.875 16.4844 65.2344
Q19.8281 66.6094 23.5781 66.6094
Q29.2969 66.6094 34.2188 64.1875
Q39.1562 61.7656 42.0312 57.3438
Q44.9219 52.9375 44.9219 47.0156
Q44.9219 42.6719 43.0156 38.7656
Q41.1094 34.8594 38.125 31.6562
Q35.1562 28.4688 30.5156 24.4062
Q25.875 20.3594 24.4219 19
L13.0938 8.10938
L22.7031 8.10938
Q29.7812 8.10938 34.5469 8.21875
Q39.3125 8.34375 39.5938 8.59375
Q40.7656 9.85938 42 17.8281
L44.9219 17.8281
L42.0938 0
z
" id="Cmr10-32"/>
      <path d="
M45.4062 46.3906
L45.4062 75.9844
L54.3906 75.9844
L54.3906 0
L45.4062 0
L45.4062 8.20312
Q42.5781 3.32812 38.25 0.953125
Q33.9375 -1.42188 27.875 -1.42188
Q17.9688 -1.42188 11.7344 6.48438
Q5.51562 14.4062 5.51562 27.2969
Q5.51562 40.1875 11.7344 48.0938
Q17.9688 56 27.875 56
Q33.9375 56 38.25 53.625
Q42.5781 51.2656 45.4062 46.3906
M14.7969 27.2969
Q14.7969 17.3906 18.875 11.75
Q22.9531 6.10938 30.0781 6.10938
Q37.2031 6.10938 41.2969 11.75
Q45.4062 17.3906 45.4062 27.2969
Q45.4062 37.2031 41.2969 42.8438
Q37.2031 48.4844 30.0781 48.4844
Q22.9531 48.4844 18.875 42.8438
Q14.7969 37.2031 14.7969 27.2969" id="DejaVuSans-64"/>
     </defs>
     <g transform="translate(419.92734375 100.27125)scale(0.144 -0.144)">
      <use transform="translate(17.55859375 0.015625)" xlink:href="#Cmsy10-a7"/>
      <use transform="translate(101.6171875 0.015625)" xlink:href="#Cmr10-30"/>
      <use transform="translate(151.6171875 0.015625)" xlink:href="#Cmmi10-3a"/>
      <use transform="translate(180.16015625 0.015625)" xlink:href="#Cmr10-32"/>
      <use transform="translate(230.16015625 0.015625)" xlink:href="#Cmr10-34"/>
      <use transform="translate(280.16015625 0.015625)" xlink:href="#Cmr10-31"/>
      <use transform="translate(330.16015625 0.015625)" xlink:href="#DejaVuSans-20"/>
      <use transform="translate(361.947265625 0.015625)" xlink:href="#DejaVuSans-28"/>
      <use transform="translate(400.9609375 0.015625)" xlink:href="#DejaVuSans-73"/>
      <use transform="translate(453.060546875 0.015625)" xlink:href="#DejaVuSans-74"/>
      <use transform="translate(492.26953125 0.015625)" xlink:href="#DejaVuSans-64"/>
      <use transform="translate(555.74609375 0.015625)" xlink:href="#DejaVuSans-29"/>
     </g>
    </g>
   </g>
  </g>
 </g>
 <defs>
  <clipPath id="pb4073553ca">
   <rect height="371.88" width="524.00734375" x="30.56" y="12.96"/>
  </clipPath>
 </defs>
</svg>
